<svg width="300" height="552" viewBox="0 0 300 552" fill="none" xmlns="http://www.w3.org/2000/svg">
<path fill-rule="evenodd" clip-rule="evenodd" d="M150.5 282C138.626 282 129 291.626 129 303.5V319H35C15.67 319 0 334.67 0 354V491C0 510.33 15.67 526 35 526H265C284.33 526 300 510.33 300 491V354C300 334.67 284.33 319 265 319H172V303.5C172 291.626 162.374 282 150.5 282ZM161.493 319V306.259C161.493 300.187 156.571 295.265 150.5 295.265C144.429 295.265 139.507 300.187 139.507 306.259V319H161.493ZM35 334H265C276.046 334 285 342.954 285 354V491C285 502.046 276.046 511 265 511H35C23.9543 511 15 502.046 15 491V354C15 342.954 23.9543 334 35 334Z" fill="#DEDEDE"/>
<path fill-rule="evenodd" clip-rule="evenodd" d="M150.5 273C138.626 273 129 263.374 129 251.5V236H35C15.67 236 0 220.33 0 201V64C0 44.67 15.67 29 35 29H265C284.33 29 300 44.67 300 64V201C300 220.33 284.33 236 265 236H172V251.5C172 263.374 162.374 273 150.5 273ZM161.493 236V248.741C161.493 254.813 156.571 259.735 150.5 259.735C144.429 259.735 139.507 254.813 139.507 248.741V236H161.493ZM35 221H265C276.046 221 285 212.046 285 201V64C285 52.9543 276.046 44 265 44H35C23.9543 44 15 52.9543 15 64V201C15 212.046 23.9543 221 35 221Z" fill="#DEDEDE"/>
<g filter="url(#filter0_d)">
<rect x="143" y="247" width="15" height="60" rx="7.5" fill="#EFEFEF"/>
</g>
<defs>
<filter id="filter0_d" x="139" y="247" width="23" height="68" filterUnits="userSpaceOnUse" color-interpolation-filters="sRGB">
<feFlood flood-opacity="0" result="BackgroundImageFix"/>
<feColorMatrix in="SourceAlpha" type="matrix" values="0 0 0 0 0 0 0 0 0 0 0 0 0 0 0 0 0 0 127 0" result="hardAlpha"/>
<feOffset dy="4"/>
<feGaussianBlur stdDeviation="2"/>
<feComposite in2="hardAlpha" operator="out"/>
<feColorMatrix type="matrix" values="0 0 0 0 0 0 0 0 0 0 0 0 0 0 0 0 0 0 0.25 0"/>
<feBlend mode="normal" in2="BackgroundImageFix" result="effect1_dropShadow"/>
<feBlend mode="normal" in="SourceGraphic" in2="effect1_dropShadow" result="shape"/>
</filter>
</defs>
</svg>
