<svg xmlns="http://www.w3.org/2000/svg" xmlns:xlink="http://www.w3.org/1999/xlink" width="806.36" height="845.589" viewBox="0 0 806.36 845.589">
  <defs>
    <linearGradient id="linear-gradient" x1="0.979" y1="0.556" x2="0.006" y2="0.464" gradientUnits="objectBoundingBox">
      <stop offset="0" stop-color="#a30ece"/>
      <stop offset="1" stop-color="#20bad8"/>
    </linearGradient>
    <filter id="Logo1" x="0" y="0" width="785.554" height="785.554" filterUnits="userSpaceOnUse">
      <feOffset dx="15" dy="13" input="SourceAlpha"/>
      <feGaussianBlur stdDeviation="17" result="blur"/>
      <feFlood flood-opacity="0.302"/>
      <feComposite operator="in" in2="blur"/>
      <feComposite in="SourceGraphic"/>
    </filter>
    <linearGradient id="linear-gradient-2" x1="0.326" y1="0.705" x2="0.928" y2="0.527" xlink:href="#linear-gradient"/>
    <filter id="Logo2" x="192.195" y="273.811" width="614.166" height="571.778" filterUnits="userSpaceOnUse">
      <feOffset dx="15" dy="15" input="SourceAlpha"/>
      <feGaussianBlur stdDeviation="13.5" result="blur-2"/>
      <feFlood flood-opacity="0.31"/>
      <feComposite operator="in" in2="blur-2"/>
      <feComposite in="SourceGraphic"/>
    </filter>
  </defs>
  <g id="Logo2-2" data-name="Logo2" transform="translate(-1121.287 72.043)">
    <g transform="matrix(1, 0, 0, 1, 1121.29, -72.04)" filter="url(#Logo1)">
      <path id="Logo1-2" data-name="Logo1" d="M-1993.925,235h-152.568a37.889,37.889,0,0,1-14.84-3,38,38,0,0,1-12.119-8.171,38,38,0,0,1-8.171-12.119,37.888,37.888,0,0,1-3-14.84,38.071,38.071,0,0,1,1.99-12.189,37.974,37.974,0,0,1,5.536-10.558,38.286,38.286,0,0,1,8.431-8.275,37.94,37.94,0,0,1,10.674-5.341h154.84a12.648,12.648,0,0,0,12.633-12.633,12.648,12.648,0,0,0-12.633-12.633h-256.027a50.509,50.509,0,0,1-19.784-3.994,50.658,50.658,0,0,1-16.156-10.893,50.655,50.655,0,0,1-10.892-16.156A50.507,50.507,0,0,1-2310,84.417a50.507,50.507,0,0,1,3.994-19.784,50.659,50.659,0,0,1,10.892-16.156,50.658,50.658,0,0,1,16.156-10.893,50.51,50.51,0,0,1,19.784-3.994h328.559a23.66,23.66,0,0,0,23.633-23.633,23.66,23.66,0,0,0-23.633-23.633H-2136.46a21.521,21.521,0,0,1-15.318-6.345,21.521,21.521,0,0,1-6.344-15.317,21.521,21.521,0,0,1,6.344-15.317A21.521,21.521,0,0,1-2136.46-57h131.723c2.5-.127,5.043-.192,7.547-.192h215.673a147.1,147.1,0,0,1,29.427,2.966,145.3,145.3,0,0,1,27.409,8.508,146.036,146.036,0,0,1,24.8,13.463,147.06,147.06,0,0,1,21.61,17.83,147.063,147.063,0,0,1,17.83,21.61,146.031,146.031,0,0,1,13.463,24.8,145.286,145.286,0,0,1,8.508,27.409,147.1,147.1,0,0,1,2.966,29.427,147.1,147.1,0,0,1-2.966,29.427,145.29,145.29,0,0,1-8.508,27.409,146.031,146.031,0,0,1-13.463,24.8,147.073,147.073,0,0,1-17.83,21.61,147.081,147.081,0,0,1-21.61,17.83,146.032,146.032,0,0,1-24.8,13.462,145.277,145.277,0,0,1-27.409,8.508,147.094,147.094,0,0,1-29.427,2.967h-208.91C-1991.587,234.946-1992.764,235-1993.925,235Z" transform="translate(1709.86 -1078.03) rotate(-45)" fill="url(#linear-gradient)"/>
    </g>
    <g transform="matrix(1, 0, 0, 1, 1121.29, -72.04)" filter="url(#Logo2)">
      <path id="Logo2-3" data-name="Logo2" d="M258.505,489.784,96.575,309.943a38.809,38.809,0,0,1-3.481-4.483L37.5,243.721a147.221,147.221,0,0,1-17.486-23.854,145.253,145.253,0,0,1-18.609-53.5,146.45,146.45,0,0,1,12.344-82.3A145.305,145.305,0,0,1,28.428,59.4,147.427,147.427,0,0,1,72.166,20.019a145.23,145.23,0,0,1,53.5-18.608A147.306,147.306,0,0,1,145.991,0c2.551,0,5.13.068,7.667.2a146.264,146.264,0,0,1,54.311,13.553,145.234,145.234,0,0,1,24.663,14.675,147.075,147.075,0,0,1,21.9,19.884L333.838,136.4c2.68,2.976,5.261,6.089,7.673,9.251l92.1,102.287a21.148,21.148,0,0,1-15.7,35.323c-.375,0-.757-.01-1.134-.03a21.025,21.025,0,0,1-14.62-6.973L371.139,241.8v.022L357.245,226.4a24,24,0,0,0-35.672,32.118L386.48,330.6c.329.365.671.723,1.019,1.065l56.281,62.506a50.811,50.811,0,0,1-37.724,84.839c-.9,0-1.808-.024-2.707-.071a50.666,50.666,0,0,1-35.112-16.748l-75.366-83.7c-.134-.168-.28-.338-.431-.508L258.5,340.288a11.525,11.525,0,0,0-17.583,14.888l74.809,83.084a38.5,38.5,0,1,1-57.222,51.523Z" transform="matrix(-0.07, -1, 1, -0.07, 249.56, 790.09)" fill="url(#linear-gradient-2)"/>
    </g>
  </g>
</svg>
