<svg width="778" height="816" viewBox="0 0 778 816" fill="none" xmlns="http://www.w3.org/2000/svg">
<g filter="url(#filter0_d)">
<path d="M449.115 481.061L341.233 588.943C337.635 592.554 333.344 595.401 328.619 597.315C324.062 599.165 319.19 600.113 314.272 600.107C309.354 600.113 304.481 599.165 299.924 597.315C295.199 595.401 290.908 592.554 287.309 588.943C284.376 586.016 281.94 582.629 280.098 578.917C278.322 575.334 277.124 571.493 276.547 567.536C275.972 563.617 276.009 559.632 276.657 555.724C277.309 551.774 278.581 547.951 280.428 544.399L389.916 434.911C392.282 432.54 393.61 429.327 393.61 425.978C393.61 422.629 392.282 419.416 389.916 417.045C387.545 414.68 384.333 413.351 380.983 413.351C377.634 413.351 374.422 414.68 372.051 417.045L191.012 598.084C186.216 602.899 180.497 606.696 174.199 609.249C168.124 611.715 161.628 612.979 155.072 612.97C148.516 612.979 142.021 611.715 135.946 609.248C129.649 606.694 123.933 602.896 119.138 598.081C114.323 593.285 110.526 587.567 107.973 581.268C105.506 575.194 104.242 568.698 104.251 562.142C104.242 555.586 105.506 549.09 107.972 543.015C110.525 536.717 114.323 530.998 119.138 526.202L351.464 293.876C355.889 289.44 358.375 283.43 358.375 277.165C358.375 270.899 355.889 264.889 351.464 260.454C347.028 256.028 341.018 253.543 334.753 253.543C328.487 253.543 322.477 256.028 318.042 260.453L172.487 406.008C170.48 408.026 168.093 409.626 165.464 410.715C162.834 411.804 160.015 412.361 157.169 412.353C154.324 412.36 151.505 411.804 148.875 410.714C146.246 409.625 143.859 408.026 141.853 406.008C139.835 404.001 138.235 401.614 137.146 398.985C136.057 396.356 135.5 393.537 135.508 390.691C135.5 387.845 136.057 385.026 137.146 382.397C138.235 379.767 139.835 377.38 141.853 375.373L234.995 282.231C236.673 280.373 238.425 278.529 240.196 276.759L392.7 124.255C399.687 117.264 407.361 110.996 415.605 105.544C423.609 100.262 432.116 95.7851 441.002 92.1791C449.741 88.6398 458.802 85.9551 468.058 84.1626C477.248 82.3861 486.586 81.4911 495.946 81.4897C505.306 81.4912 514.645 82.3862 523.835 84.1626C533.091 85.9551 542.152 88.6398 550.891 92.1791C559.777 95.785 568.284 100.262 576.288 105.544C584.532 110.996 592.206 117.264 599.193 124.255C606.184 131.242 612.452 138.916 617.904 147.16C623.186 155.164 627.663 163.671 631.269 172.557C634.808 181.296 637.493 190.357 639.285 199.613C641.062 208.803 641.957 218.142 641.958 227.502C641.957 236.862 641.062 246.2 639.285 255.39C637.493 264.646 634.808 273.707 631.268 282.445C627.662 291.331 623.185 299.839 617.903 307.842C612.452 316.087 606.183 323.761 599.193 330.748L451.471 478.47C450.73 479.37 449.936 480.24 449.115 481.061Z" fill="url(#paint0_linear)"/>
</g>
<g filter="url(#filter1_d)">
<path d="M704.252 480.303L535.746 654.822C534.427 656.189 533.01 657.457 531.506 658.617L473.659 718.533C466.778 725.661 459.196 732.079 451.029 737.688C435.265 748.493 417.529 756.089 398.832 760.042C371.057 765.936 342.169 763.65 315.668 753.459C306.696 750.001 298.089 745.662 289.973 740.507C273.215 729.838 258.78 715.9 247.53 699.526C236.726 683.762 229.13 666.026 225.177 647.328C223.767 640.66 222.82 633.901 222.344 627.102C222.165 624.551 222.053 621.967 222.007 619.421C221.669 600.545 224.98 581.782 231.758 564.161C235.216 555.191 239.553 546.586 244.707 538.471C250.025 530.11 256.174 522.307 263.058 515.179L345.594 429.707C348.383 426.819 351.315 424.02 354.308 421.386L450.148 322.126C452.993 319.171 456.633 317.105 460.629 316.177C464.624 315.25 468.803 315.502 472.658 316.902C476.514 318.302 479.88 320.791 482.349 324.066C484.819 327.341 486.285 331.262 486.57 335.354C486.596 335.729 486.613 336.111 486.62 336.49C486.676 339.276 486.179 342.047 485.158 344.64C484.137 347.233 482.611 349.598 480.67 351.598L448.383 385.028L448.405 385.026L433.956 400C431.761 402.273 430.036 404.956 428.878 407.895C427.72 410.835 427.153 413.974 427.208 417.133C427.263 420.292 427.94 423.409 429.2 426.307C430.46 429.204 432.279 431.825 434.552 434.019C439.142 438.452 445.305 440.879 451.685 440.767C454.844 440.712 457.961 440.035 460.858 438.775C463.755 437.515 466.376 435.697 468.571 433.424L536.109 363.471C536.451 363.116 536.785 362.749 537.103 362.377L595.669 301.721C602.505 294.63 611.251 289.673 620.846 287.451C630.442 285.229 640.476 285.836 649.733 289.2C658.991 292.564 667.074 298.539 673.005 306.403C678.936 314.266 682.459 323.681 683.149 333.506C683.212 334.406 683.252 335.316 683.268 336.218C683.394 342.91 682.196 349.56 679.744 355.787C677.291 362.014 673.632 367.694 668.977 372.503L590.553 453.728C590.394 453.873 590.235 454.031 590.075 454.194L554.756 490.773C552.669 492.933 551.506 495.821 551.513 498.825C551.52 501.828 552.696 504.711 554.792 506.862C556.888 509.013 559.74 510.263 562.742 510.348C565.744 510.432 568.661 509.344 570.875 507.314L648.722 426.689C652.24 423.031 656.444 420.103 661.095 418.072C665.746 416.042 670.751 414.948 675.825 414.854C680.899 414.76 685.941 415.668 690.664 417.525C695.387 419.382 699.697 422.152 703.347 425.677C706.998 429.202 709.918 433.412 711.939 438.067C713.961 442.722 715.044 447.729 715.128 452.803C715.212 457.877 714.295 462.918 712.428 467.637C710.562 472.356 707.783 476.661 704.251 480.304L704.252 480.303Z" fill="url(#paint1_linear)"/>
</g>
<defs>
<filter id="filter0_d" x="0.00549316" y="0.00805664" width="751.552" height="751.552" filterUnits="userSpaceOnUse" color-interpolation-filters="sRGB">
<feFlood flood-opacity="0" result="BackgroundImageFix"/>
<feColorMatrix in="SourceAlpha" type="matrix" values="0 0 0 0 0 0 0 0 0 0 0 0 0 0 0 0 0 0 127 0" result="hardAlpha"/>
<feOffset dx="15" dy="13"/>
<feGaussianBlur stdDeviation="17"/>
<feColorMatrix type="matrix" values="0 0 0 0 0 0 0 0 0 0 0 0 0 0 0 0 0 0 0.302 0"/>
<feBlend mode="normal" in2="BackgroundImageFix" result="effect1_dropShadow"/>
<feBlend mode="normal" in="SourceGraphic" in2="effect1_dropShadow" result="shape"/>
</filter>
<filter id="filter1_d" x="188.583" y="269.056" width="588.559" height="546.049" filterUnits="userSpaceOnUse" color-interpolation-filters="sRGB">
<feFlood flood-opacity="0" result="BackgroundImageFix"/>
<feColorMatrix in="SourceAlpha" type="matrix" values="0 0 0 0 0 0 0 0 0 0 0 0 0 0 0 0 0 0 127 0" result="hardAlpha"/>
<feOffset dx="15" dy="15"/>
<feGaussianBlur stdDeviation="13.5"/>
<feColorMatrix type="matrix" values="0 0 0 0 0 0 0 0 0 0 0 0 0 0 0 0 0 0 0.31 0"/>
<feBlend mode="normal" in2="BackgroundImageFix" result="effect1_dropShadow"/>
<feBlend mode="normal" in="SourceGraphic" in2="effect1_dropShadow" result="shape"/>
</filter>
<linearGradient id="paint0_linear" x1="600.806" y1="145.9" x2="56.3377" y2="495.273" gradientUnits="userSpaceOnUse">
<stop stop-color="#A30ECE"/>
<stop offset="1" stop-color="#20BAD8"/>
</linearGradient>
<linearGradient id="paint1_linear" x1="576.456" y1="599.363" x2="481.958" y2="325.683" gradientUnits="userSpaceOnUse">
<stop stop-color="#A30ECE"/>
<stop offset="1" stop-color="#20BAD8"/>
</linearGradient>
</defs>
</svg>
