<?xml version="1.0" standalone="no"?>
<!DOCTYPE svg PUBLIC "-//W3C//DTD SVG 20010904//EN"
 "http://www.w3.org/TR/2001/REC-SVG-20010904/DTD/svg10.dtd">
<svg version="1.0" xmlns="http://www.w3.org/2000/svg"
 width="846.000000pt" height="846.000000pt" viewBox="0 0 846.000000 846.000000"
 preserveAspectRatio="xMidYMid meet">
<metadata>
Created by potrace 1.11, written by Peter Selinger 2001-2013
</metadata>
<g transform="translate(0.000000,846.000000) scale(0.100000,-0.100000)"
fill="#000000" stroke="none">
<path d="M5257 7474 c-1 -1 -31 -4 -67 -7 -194 -17 -395 -81 -590 -189 -42
-23 -115 -73 -118 -80 -2 -5 -8 -8 -13 -8 -10 0 -38 -23 -122 -100 -69 -64
-1582 -1575 -1645 -1644 -23 -25 -47 -46 -52 -46 -5 0 -12 -9 -15 -20 -3 -11
-10 -20 -14 -20 -10 0 -241 -231 -241 -241 0 -4 -4 -9 -10 -11 -15 -5 -230
-220 -230 -230 0 -4 -4 -8 -8 -8 -11 0 -232 -221 -232 -231 0 -4 -9 -11 -20
-14 -11 -3 -20 -11 -20 -16 0 -5 -18 -26 -41 -46 -61 -55 -90 -111 -90 -175
-1 -88 44 -165 121 -204 42 -21 168 -24 180 -4 4 7 13 9 20 5 9 -5 11 -4 6 3
-4 7 -2 12 4 12 6 0 60 48 118 107 59 59 110 107 115 105 4 -1 7 2 7 7 0 11
220 234 220 224 0 -5 5 0 11 10 9 15 13 16 27 5 15 -12 16 -11 4 4 -12 15 25
55 318 347 190 190 336 329 342 325 6 -4 8 -3 5 3 -9 14 81 105 95 97 6 -4 8
-2 4 4 -8 14 22 44 36 36 6 -4 8 -2 5 3 -7 11 57 83 74 83 6 0 7 5 3 12 -5 8
-2 9 10 5 9 -4 15 -3 11 2 -8 14 85 102 98 94 7 -3 9 -2 4 2 -9 10 21 45 40
45 7 0 13 4 13 9 0 5 11 8 25 5 14 -2 25 0 25 6 0 5 12 10 26 10 17 0 23 -4
18 -12 -4 -7 -4 -10 1 -6 4 4 15 2 23 -5 13 -10 14 -9 8 1 -9 15 18 27 36 16
7 -5 19 -9 26 -10 25 -4 82 -49 78 -61 -3 -7 1 -10 10 -6 12 4 15 0 14 -22 -1
-3 6 -13 15 -21 8 -9 13 -19 10 -24 -3 -5 -1 -10 4 -12 17 -6 19 -92 3 -140
-8 -27 -32 -66 -52 -88 -20 -22 -36 -40 -34 -40 4 0 -53 -55 -86 -83 -17 -15
-30 -27 -27 -27 3 0 -216 -220 -424 -425 -31 -30 -55 -55 -54 -55 2 0 -16 -19
-39 -43 -22 -23 -44 -41 -48 -40 -3 2 -8 -1 -10 -7 -4 -13 -358 -369 -358
-361 -1 3 -7 -5 -15 -19 -8 -14 -14 -21 -15 -17 0 5 -18 -13 -40 -38 -22 -25
-40 -43 -40 -38 0 4 -4 2 -9 -6 -10 -16 -250 -258 -253 -256 -2 0 -13 -9 -25
-22 -12 -13 -21 -23 -20 -23 1 0 -196 -200 -438 -443 -242 -244 -445 -451
-452 -459 -13 -18 -56 -101 -56 -108 0 -3 -3 -15 -8 -28 -22 -58 -30 -190 -16
-258 11 -49 35 -114 57 -149 11 -18 16 -36 12 -40 -4 -5 -1 -5 6 -1 6 4 12 2
12 -3 0 -36 192 -182 238 -181 7 0 11 -4 8 -8 -2 -4 3 -8 12 -9 76 -6 119 -15
141 -29 20 -14 23 -14 13 -2 -10 13 -6 15 30 17 98 4 116 6 111 15 -3 5 6 7
21 4 14 -3 29 -1 33 5 4 6 1 7 -8 3 -8 -4 -5 -1 5 8 10 8 23 13 27 10 5 -3 9
0 9 5 0 6 3 10 8 9 11 -3 56 23 65 38 4 8 17 14 28 14 11 0 18 4 15 8 -3 5 10
23 29 40 22 22 35 28 38 20 3 -7 6 -4 6 8 1 11 10 29 21 39 17 15 22 16 37 4
16 -13 17 -12 4 4 -16 21 -7 35 12 19 10 -9 14 -8 14 3 0 8 -4 12 -9 9 -4 -3
-8 -1 -8 3 0 11 43 48 52 45 5 -1 8 3 8 10 0 19 52 59 68 53 11 -4 12 -2 4 7
-11 14 10 43 22 31 3 -4 6 1 6 10 0 23 18 31 38 15 15 -12 16 -11 4 4 -18 22
-6 40 21 33 16 -5 18 -4 8 3 -11 8 -3 21 38 62 49 50 66 56 36 14 -8 -12 -11
-24 -7 -28 3 -4 0 -11 -8 -16 -7 -4 -15 -19 -17 -32 -2 -13 -8 -25 -13 -26 -6
-2 -8 -8 -5 -12 3 -5 -1 -26 -10 -47 -9 -21 -16 -39 -16 -40 4 -19 -1 -33 -11
-27 -7 4 -8 3 -4 -5 9 -14 -13 -120 -28 -140 -9 -12 -8 -13 3 -7 10 7 12 3 6
-13 -4 -12 -8 -55 -9 -95 -2 -40 -6 -77 -9 -83 -4 -6 -4 -13 0 -17 11 -10 10
-76 -1 -76 -8 0 -8 -3 -1 -8 6 -4 11 -25 12 -47 0 -22 4 -56 7 -75 4 -19 9
-51 13 -70 3 -19 7 -44 9 -54 2 -11 18 -65 36 -120 17 -56 31 -104 30 -108 -1
-5 3 -8 8 -8 6 0 10 -7 10 -15 0 -9 7 -27 16 -40 9 -14 12 -25 8 -25 -5 0 -4
-4 1 -8 6 -4 23 -33 40 -64 16 -32 33 -58 38 -58 4 0 5 -4 2 -10 -3 -5 -2 -10
2 -10 5 0 17 -17 28 -37 11 -20 25 -41 31 -47 6 -6 26 -32 46 -58 20 -26 39
-44 42 -41 3 4 6 1 6 -5 0 -9 29 -39 157 -159 18 -18 36 -32 38 -33 3 0 10 0
15 0 6 0 10 -7 10 -16 0 -8 3 -13 8 -10 12 7 45 -22 37 -33 -3 -7 0 -8 9 -5 8
3 35 -7 58 -23 24 -16 66 -40 93 -53 28 -13 52 -26 55 -29 3 -3 10 -7 15 -8
22 -5 130 -46 135 -52 3 -3 11 -6 18 -7 37 -3 43 -5 38 -12 -2 -4 8 -8 22 -8
76 -3 75 -3 61 -21 -11 -15 -10 -14 9 1 12 11 22 14 22 8 0 -7 3 -11 8 -11 32
5 72 -3 66 -13 -5 -7 -3 -8 6 -3 12 8 66 11 73 4 1 -1 25 -3 52 -4 37 -1 49
-5 47 -16 -2 -11 0 -11 10 1 10 11 35 15 103 15 50 0 102 4 117 10 23 8 30 6
42 -10 14 -20 15 -20 13 0 -1 13 4 20 18 20 11 0 26 4 33 8 6 5 16 6 21 2 5
-3 12 -1 16 4 3 6 12 8 20 4 8 -3 15 -1 15 4 0 10 7 11 55 14 15 1 22 6 18 13
-4 6 2 4 12 -4 10 -8 16 -10 12 -3 -6 10 13 23 36 23 4 0 21 7 38 16 23 11 29
12 24 2 -4 -7 3 -3 15 9 22 21 24 21 37 5 12 -16 13 -16 7 0 -4 12 4 22 28 34
18 10 36 17 41 16 4 -1 7 2 7 7 0 5 8 11 18 13 33 9 37 11 48 26 7 9 16 12 25
7 8 -5 11 -5 7 0 -7 7 65 66 79 64 3 0 10 6 15 15 5 9 15 16 23 16 7 0 17 9
20 20 3 11 13 20 21 20 8 0 14 5 14 11 0 6 6 9 13 6 6 -2 11 -11 9 -18 -2 -8
0 -10 4 -6 11 11 14 38 3 31 -5 -3 -9 -1 -9 3 0 10 42 38 52 35 5 -1 7 1 6 6
-3 14 14 42 23 36 5 -3 9 -1 9 4 0 15 110 127 121 124 6 -1 8 1 5 6 -9 14 41
51 64 47 11 -2 20 1 20 7 0 5 -7 7 -16 4 -12 -5 -15 -2 -10 10 3 8 6 18 6 20
0 2 7 4 16 4 8 0 13 3 11 8 -3 4 1 13 9 20 8 7 14 10 14 7 0 -3 8 3 18 13 10
9 17 19 16 21 -2 2 3 10 11 18 15 14 40 9 30 -7 -3 -5 0 -12 7 -16 7 -4 10 -4
6 1 -4 4 2 15 14 25 17 13 18 17 5 17 -9 0 -14 -4 -11 -9 3 -4 1 -8 -5 -8 -5
0 -13 5 -16 11 -7 11 40 60 49 51 3 -3 6 0 6 7 0 17 26 42 35 33 5 -4 5 -2 2
4 -4 7 8 25 27 42 19 17 32 34 28 38 -4 4 1 4 11 1 13 -5 17 -1 17 14 0 15 5
19 16 15 8 -3 12 -2 9 4 -3 6 -1 10 5 10 6 0 8 5 5 10 -6 9 7 14 27 11 4 0 5
6 2 14 -4 10 0 15 16 15 11 0 19 4 16 9 -9 14 41 54 56 45 9 -5 8 -2 -2 11 -8
10 -10 16 -4 12 7 -4 15 0 18 9 3 8 11 12 17 8 7 -4 9 -3 5 4 -6 11 48 72 65
72 5 0 8 3 7 8 -2 4 16 27 40 51 35 37 45 42 53 30 8 -10 9 -9 4 7 -4 16 1 27
19 42 14 10 22 23 18 27 -4 3 -2 5 4 3 5 -2 25 14 43 35 29 32 36 36 50 25 14
-11 14 -11 3 4 -11 14 -9 20 13 42 18 18 34 25 51 22 13 -3 24 0 24 6 0 5 -7
8 -15 5 -8 -4 -17 -3 -19 2 -7 12 33 43 46 35 6 -4 8 -3 5 3 -7 11 37 68 52
68 5 0 13 4 18 9 5 5 3 6 -4 2 -7 -4 -13 -2 -13 5 0 6 8 9 20 6 11 -3 23 0 27
5 3 7 1 8 -5 4 -7 -4 -12 -2 -12 4 0 6 7 13 15 16 8 4 15 10 15 15 0 13 72 75
83 71 4 -1 6 2 3 7 -6 9 66 91 79 91 3 0 4 -4 1 -8 -3 -5 1 -9 9 -9 10 0 12 4
5 12 -12 15 4 40 20 30 8 -5 11 -4 7 2 -8 13 22 55 34 47 5 -3 9 -2 8 3 -3 19
2 33 12 33 14 0 39 26 39 41 0 7 3 9 7 6 3 -4 16 7 28 23 12 16 24 27 28 24 3
-3 8 4 12 15 6 19 16 25 36 23 4 -1 6 6 5 16 0 10 6 16 16 16 10 -1 17 1 16 5
-2 19 3 31 12 26 6 -3 10 -1 10 5 0 19 38 53 51 45 8 -6 10 -4 5 4 -9 14 22
53 36 45 4 -3 7 -2 6 3 -2 4 5 19 14 31 11 17 22 22 36 18 11 -4 23 -2 27 3 3
6 0 8 -8 5 -8 -3 -18 -1 -22 5 -6 10 8 16 28 12 5 -1 6 3 2 9 -8 14 42 63 57
54 7 -4 8 -3 4 5 -5 7 3 22 19 37 22 20 30 23 36 12 7 -10 9 -11 9 0 0 7 5 10
10 7 6 -3 10 -1 10 5 0 7 -7 9 -16 6 -10 -4 -14 -2 -11 6 2 7 10 12 16 11 6
-2 10 0 10 5 -4 21 3 30 20 27 13 -2 18 1 15 9 -3 7 8 24 23 38 15 15 34 34
41 43 7 8 18 13 23 9 5 -3 9 -2 8 3 -5 27 1 35 16 23 13 -11 14 -10 8 6 -6 17
-5 18 12 4 17 -14 18 -14 8 5 -10 17 -6 25 28 56 21 20 36 39 32 42 -3 4 -1 7
6 7 6 0 22 12 35 27 21 25 26 26 42 13 13 -9 15 -10 7 -1 -12 15 2 71 18 71 5
0 9 7 9 15 0 7 6 18 13 22 11 7 15 22 19 60 1 7 5 10 10 7 4 -3 5 9 2 26 -5
25 -3 30 12 31 18 0 18 1 -1 9 -11 5 -15 9 -9 9 8 1 10 12 5 34 -4 17 -7 44
-6 60 1 15 -2 27 -7 27 -5 0 -6 5 -3 10 3 6 2 10 -4 10 -5 0 -8 9 -6 20 2 11
0 20 -6 20 -5 0 -9 7 -9 15 0 8 -4 15 -10 15 -5 0 -10 6 -10 14 0 28 -139 154
-154 139 -3 -3 -6 -1 -6 6 0 7 -4 9 -10 6 -5 -3 -10 -2 -10 3 0 8 -58 24 -97
26 -6 1 -15 5 -19 9 -4 4 -13 2 -21 -4 -9 -9 -13 -8 -13 0 0 9 -5 9 -20 1 -15
-8 -20 -8 -20 2 0 9 -3 9 -10 -2 -8 -12 -11 -13 -19 -1 -6 9 -10 10 -12 2 -2
-6 -15 -13 -28 -16 -12 -2 -29 -9 -37 -16 -8 -6 -14 -8 -14 -4 0 4 -7 2 -15
-5 -8 -6 -20 -8 -26 -4 -7 4 -9 3 -6 -3 4 -6 -5 -19 -20 -28 -14 -10 -66 -59
-115 -109 -49 -50 -94 -90 -99 -89 -5 2 -8 -3 -6 -10 1 -6 -4 -11 -11 -9 -8 1
-11 -1 -8 -6 6 -11 -173 -198 -185 -195 -5 2 -8 -3 -6 -10 1 -6 -6 -11 -15
-11 -10 1 -15 -2 -12 -7 6 -11 -97 -120 -108 -113 -4 3 -5 -3 -1 -12 5 -13 3
-16 -10 -11 -11 4 -14 2 -10 -9 3 -9 -1 -14 -13 -14 -9 0 -15 -3 -11 -6 3 -3
-39 -52 -93 -108 -142 -145 -143 -145 -151 -140 -4 2 -9 -1 -11 -7 -4 -11 -50
-16 -77 -8 -23 7 -61 45 -61 63 0 9 -5 16 -11 16 -13 0 -6 48 13 86 8 16 19
28 26 27 6 -2 9 4 5 13 -3 9 0 14 8 12 8 -2 13 3 11 11 -2 8 3 11 12 8 11 -4
13 -1 9 11 -6 15 -5 15 10 3 15 -12 17 -12 12 1 -7 18 72 101 88 91 6 -3 7 -1
3 6 -8 12 42 68 56 63 5 -1 7 2 5 7 -1 5 15 25 37 45 21 20 35 36 31 36 -4 0
5 10 21 23 16 12 32 21 37 19 5 -1 6 2 3 7 -3 5 8 21 25 35 17 14 27 26 23 26
-3 0 25 32 64 71 39 39 75 68 79 66 5 -3 10 4 10 15 1 11 10 26 20 33 32 23
83 75 83 85 0 6 11 15 25 22 13 6 22 16 18 21 -4 6 0 8 10 4 12 -4 14 -2 10
10 -4 10 -2 14 4 10 6 -4 13 3 16 14 4 15 11 20 22 15 9 -3 14 -2 11 2 -7 12
24 53 35 47 5 -4 9 3 9 14 0 15 6 21 21 21 11 0 18 4 15 9 -3 4 3 16 14 26 11
10 20 14 21 9 1 -5 4 2 8 16 4 14 13 25 21 25 8 1 14 6 12 13 -1 7 5 12 13 12
8 0 15 4 15 9 0 18 60 72 71 65 8 -4 9 -3 5 5 -5 7 9 29 33 54 23 23 41 46 41
51 0 6 7 1 15 -10 14 -19 14 -19 9 1 -3 13 5 32 25 54 17 19 31 39 31 43 0 5
5 6 12 2 8 -5 9 -2 5 10 -5 12 -3 16 5 13 7 -2 12 -9 11 -14 -1 -5 5 -10 13
-10 12 0 12 3 -1 17 -17 18 -20 40 -6 40 5 0 12 16 15 36 6 27 11 34 23 30 13
-6 14 -4 3 10 -12 13 -11 17 1 25 12 7 12 9 -1 9 -9 0 -11 3 -5 8 14 10 16 26
15 91 -2 106 -4 121 -14 121 -6 0 -4 5 4 10 10 6 11 10 3 10 -7 0 -13 7 -13
16 0 19 -51 128 -62 132 -4 2 -6 8 -2 13 3 5 0 9 -5 9 -6 0 -11 4 -11 10 0 9
-77 90 -86 90 -3 0 -15 9 -27 20 -27 26 -141 80 -167 80 -11 0 -20 4 -20 8 0
4 -15 8 -32 9 -104 4 -107 5 -93 27 14 20 15 25 15 47 0 5 4 7 10 4 6 -3 7 1
4 9 -3 9 -1 16 5 16 6 0 8 6 5 14 -3 7 2 21 11 30 10 10 12 16 4 16 -8 0 -8 4
1 15 7 9 10 18 6 22 -3 3 1 17 10 31 11 17 12 22 3 17 -8 -5 -4 3 9 17 12 13
22 28 22 33 0 5 -7 0 -16 -11 -14 -18 -15 -18 -8 6 3 14 12 31 18 39 7 10 7
12 0 8 -7 -4 -9 4 -6 23 3 19 9 27 16 23 8 -4 8 -3 0 6 -7 7 -9 27 -5 49 3 20
6 62 6 94 0 35 3 54 10 50 5 -3 4 2 -4 11 -10 13 -10 17 -1 17 9 0 9 4 -1 17
-12 15 -12 16 1 8 12 -6 13 -5 3 5 -10 11 -9 16 5 27 16 12 16 13 0 7 -15 -5
-18 0 -19 37 -1 67 -5 99 -12 106 -4 3 -1 13 6 21 9 13 9 14 0 8 -13 -7 -15 2
-16 71 -1 12 -5 20 -9 17 -7 -4 -9 4 -8 31 0 3 -6 18 -14 34 -12 22 -12 31 -3
41 9 9 9 11 0 6 -14 -8 -38 58 -27 75 5 8 3 9 -6 4 -10 -6 -12 -3 -8 13 5 16
2 19 -11 15 -9 -4 -13 -3 -9 1 8 9 -18 75 -40 99 -8 9 -11 17 -7 17 4 0 0 9
-9 19 -10 11 -15 25 -10 32 5 8 3 10 -6 4 -10 -6 -12 -4 -6 11 4 10 4 15 0 12
-7 -8 -50 46 -60 75 -4 9 -10 17 -15 17 -5 0 -9 9 -9 21 0 11 -4 18 -8 15 -5
-3 -17 7 -28 21 -10 15 -25 32 -31 39 -7 7 -13 18 -13 25 0 7 -2 10 -5 8 -6
-7 -170 154 -167 164 1 5 -2 6 -7 2 -8 -5 -63 30 -118 75 -7 6 -17 10 -23 10
-5 0 -10 5 -10 10 0 6 -7 10 -15 10 -8 0 -15 5 -15 11 0 5 -4 7 -10 4 -5 -3
-10 -2 -10 4 0 5 -13 12 -29 16 -15 3 -37 14 -48 23 -10 9 -25 18 -33 20 -8 1
-24 7 -35 11 -24 11 -59 23 -63 21 -1 0 -15 6 -32 15 -16 8 -38 15 -50 15 -11
0 -20 5 -20 12 0 6 -2 9 -6 6 -3 -3 -22 -2 -42 3 -20 5 -55 12 -77 15 -22 4
-42 9 -45 13 -3 3 -23 7 -45 8 -164 6 -266 9 -268 7z"/>
<path d="M6675 6640 c-3 -5 -1 -10 4 -10 6 0 11 5 11 10 0 6 -2 10 -4 10 -3 0
-8 -4 -11 -10z"/>
<path d="M6770 6399 c0 -5 5 -7 10 -4 6 3 10 8 10 11 0 2 -4 4 -10 4 -5 0 -10
-5 -10 -11z"/>
<path d="M6796 6253 c-6 -14 -5 -15 5 -6 7 7 10 15 7 18 -3 3 -9 -2 -12 -12z"/>
<path d="M6855 6211 c-3 -5 -2 -12 3 -15 5 -3 9 1 9 9 0 17 -3 19 -12 6z"/>
<path d="M6815 6161 c-3 -5 -2 -12 3 -15 5 -3 9 1 9 9 0 17 -3 19 -12 6z"/>
<path d="M6853 6151 c0 -11 5 -18 9 -15 4 3 5 11 1 19 -7 21 -12 19 -10 -4z"/>
<path d="M6825 6060 c-3 -6 1 -7 9 -4 18 7 21 14 7 14 -6 0 -13 -4 -16 -10z"/>
<path d="M6855 5880 c3 -5 8 -10 11 -10 2 0 4 5 4 10 0 6 -5 10 -11 10 -5 0
-7 -4 -4 -10z"/>
<path d="M6839 5733 c-13 -16 -12 -17 4 -4 16 13 21 21 13 21 -2 0 -10 -8 -17
-17z"/>
<path d="M6906 5705 c-11 -8 -15 -15 -9 -15 6 0 16 7 23 15 16 19 11 19 -14 0z"/>
<path d="M3619 5693 c-13 -17 -13 -17 6 -3 11 8 22 16 24 17 2 2 0 3 -6 3 -6
0 -17 -8 -24 -17z"/>
<path d="M3754 5675 c0 -13 3 -22 7 -19 8 4 6 30 -2 38 -3 3 -5 -5 -5 -19z"/>
<path d="M3847 5679 c7 -7 15 -10 18 -7 3 3 -2 9 -12 12 -14 6 -15 5 -6 -5z"/>
<path d="M6854 5656 c1 -8 5 -18 8 -22 4 -3 5 1 4 10 -1 8 -5 18 -8 22 -4 3
-5 -1 -4 -10z"/>
<path d="M3815 5640 c3 -5 8 -10 11 -10 2 0 4 5 4 10 0 6 -5 10 -11 10 -5 0
-7 -4 -4 -10z"/>
<path d="M3710 5619 c0 -5 5 -7 10 -4 6 3 10 8 10 11 0 2 -4 4 -10 4 -5 0 -10
-5 -10 -11z"/>
<path d="M3755 5589 c-4 -6 -5 -12 -2 -15 2 -3 7 2 10 11 7 17 1 20 -8 4z"/>
<path d="M3486 5582 c-3 -5 1 -9 9 -9 8 0 12 4 9 9 -3 4 -7 8 -9 8 -2 0 -6 -4
-9 -8z"/>
<path d="M3693 5555 c0 -8 4 -12 9 -9 5 3 6 10 3 15 -9 13 -12 11 -12 -6z"/>
<path d="M6745 5560 c-3 -6 1 -7 9 -4 18 7 21 14 7 14 -6 0 -13 -4 -16 -10z"/>
<path d="M3466 5542 c-2 -4 4 -8 14 -8 10 0 16 4 14 8 -3 4 -9 8 -14 8 -5 0
-11 -4 -14 -8z"/>
<path d="M3793 5535 c0 -8 4 -12 9 -9 5 3 6 10 3 15 -9 13 -12 11 -12 -6z"/>
<path d="M3635 5511 c-3 -5 -2 -12 3 -15 5 -3 9 1 9 9 0 17 -3 19 -12 6z"/>
<path d="M3530 5479 c0 -5 5 -7 10 -4 6 3 10 8 10 11 0 2 -4 4 -10 4 -5 0 -10
-5 -10 -11z"/>
<path d="M3396 5413 c-6 -14 -5 -15 5 -6 7 7 10 15 7 18 -3 3 -9 -2 -12 -12z"/>
<path d="M3430 5419 c0 -5 5 -7 10 -4 6 3 10 8 10 11 0 2 -4 4 -10 4 -5 0 -10
-5 -10 -11z"/>
<path d="M6915 5420 c-3 -5 -1 -10 4 -10 6 0 11 5 11 10 0 6 -2 10 -4 10 -3 0
-8 -4 -11 -10z"/>
<path d="M3266 5358 c3 -5 10 -6 15 -3 13 9 11 12 -6 12 -8 0 -12 -4 -9 -9z"/>
<path d="M3247 5339 c7 -7 15 -10 18 -7 3 3 -2 9 -12 12 -14 6 -15 5 -6 -5z"/>
<path d="M3375 5331 c-3 -5 -2 -12 3 -15 5 -3 9 1 9 9 0 17 -3 19 -12 6z"/>
<path d="M3330 5320 c0 -5 5 -10 11 -10 5 0 7 5 4 10 -3 6 -8 10 -11 10 -2 0
-4 -4 -4 -10z"/>
<path d="M3226 5302 c-2 -4 4 -8 14 -8 10 0 16 4 14 8 -3 4 -9 8 -14 8 -5 0
-11 -4 -14 -8z"/>
<path d="M3273 5295 c0 -8 4 -12 9 -9 5 3 6 10 3 15 -9 13 -12 11 -12 -6z"/>
<path d="M3335 5280 c3 -5 8 -10 11 -10 2 0 4 5 4 10 0 6 -5 10 -11 10 -5 0
-7 -4 -4 -10z"/>
<path d="M3216 5267 c3 -10 9 -15 12 -12 3 3 0 11 -7 18 -10 9 -11 8 -5 -6z"/>
<path d="M3395 5261 c-3 -5 -2 -12 3 -15 5 -3 9 1 9 9 0 17 -3 19 -12 6z"/>
<path d="M3190 5237 c0 -2 6 -10 14 -16 11 -9 16 -9 22 1 4 7 4 10 -1 6 -4 -4
-14 -3 -22 3 -7 6 -13 9 -13 6z"/>
<path d="M3130 5181 c0 -6 4 -13 10 -16 6 -3 7 1 4 9 -7 18 -14 21 -14 7z"/>
<path d="M3256 5162 c-3 -5 1 -9 9 -9 8 0 12 4 9 9 -3 4 -7 8 -9 8 -2 0 -6 -4
-9 -8z"/>
<path d="M3020 5120 c-12 -7 -10 -9 7 -7 12 0 19 5 17 9 -6 10 -6 10 -24 -2z"/>
<path d="M3173 5069 c-2 -23 3 -25 10 -4 4 8 3 16 -1 19 -4 3 -9 -4 -9 -15z"/>
<path d="M3095 5040 c3 -5 8 -10 11 -10 2 0 4 5 4 10 0 6 -5 10 -11 10 -5 0
-7 -4 -4 -10z"/>
<path d="M2999 5013 c-13 -16 -12 -17 4 -4 16 13 21 21 13 21 -2 0 -10 -8 -17
-17z"/>
<path d="M3075 5000 c-3 -5 -1 -10 4 -10 6 0 11 5 11 10 0 6 -2 10 -4 10 -3 0
-8 -4 -11 -10z"/>
<path d="M3030 4986 c0 -2 7 -7 16 -10 8 -3 12 -2 9 4 -6 10 -25 14 -25 6z"/>
<path d="M2910 4960 c0 -5 5 -10 11 -10 5 0 7 5 4 10 -3 6 -8 10 -11 10 -2 0
-4 -4 -4 -10z"/>
<path d="M2973 4925 c0 -8 4 -12 9 -9 5 3 6 10 3 15 -9 13 -12 11 -12 -6z"/>
<path d="M7275 4920 c-3 -5 -1 -10 4 -10 6 0 11 5 11 10 0 6 -2 10 -4 10 -3 0
-8 -4 -11 -10z"/>
<path d="M7360 4920 c-9 -6 -10 -10 -3 -10 6 0 15 5 18 10 8 12 4 12 -15 0z"/>
<path d="M2895 4909 c-4 -6 -5 -12 -2 -15 2 -3 7 2 10 11 7 17 1 20 -8 4z"/>
<path d="M7230 4906 c0 -2 7 -7 16 -10 8 -3 12 -2 9 4 -6 10 -25 14 -25 6z"/>
<path d="M2933 4885 c0 -8 4 -12 9 -9 5 3 6 10 3 15 -9 13 -12 11 -12 -6z"/>
<path d="M7295 4831 c-3 -5 -2 -12 3 -15 5 -3 9 1 9 9 0 17 -3 19 -12 6z"/>
<path d="M2930 4819 c0 -5 5 -7 10 -4 6 3 10 8 10 11 0 2 -4 4 -10 4 -5 0 -10
-5 -10 -11z"/>
<path d="M2750 4800 c0 -5 5 -10 11 -10 5 0 7 5 4 10 -3 6 -8 10 -11 10 -2 0
-4 -4 -4 -10z"/>
<path d="M7315 4791 c-3 -5 -2 -12 3 -15 5 -3 9 1 9 9 0 17 -3 19 -12 6z"/>
<path d="M2716 4773 c-6 -14 -5 -15 5 -6 7 7 10 15 7 18 -3 3 -9 -2 -12 -12z"/>
<path d="M7276 4773 c-6 -14 -5 -15 5 -6 7 7 10 15 7 18 -3 3 -9 -2 -12 -12z"/>
<path d="M2660 4760 c-9 -6 -10 -10 -3 -10 6 0 15 5 18 10 8 12 4 12 -15 0z"/>
<path d="M2755 4749 c-4 -6 -5 -12 -2 -15 2 -3 7 2 10 11 7 17 1 20 -8 4z"/>
<path d="M7190 4715 c5 -7 8 -14 5 -17 -3 -2 2 -5 10 -5 10 0 12 4 5 12 -5 7
-8 14 -5 17 3 2 -2 5 -10 5 -10 0 -12 -4 -5 -12z"/>
<path d="M7286 4678 c3 -5 10 -6 15 -3 13 9 11 12 -6 12 -8 0 -12 -4 -9 -9z"/>
<path d="M7178 4668 c15 -19 49 -20 49 -1 0 9 -4 10 -14 2 -10 -9 -18 -8 -30
2 -16 13 -17 12 -5 -3z"/>
<path d="M2693 4645 c0 -8 4 -12 9 -9 5 3 6 10 3 15 -9 13 -12 11 -12 -6z"/>
<path d="M2574 4618 c-4 -7 -4 -10 1 -6 4 4 15 2 24 -5 14 -11 14 -10 2 6 -16
20 -18 21 -27 5z"/>
<path d="M7360 4620 c-9 -6 -10 -10 -3 -10 6 0 15 5 18 10 8 12 4 12 -15 0z"/>
<path d="M2655 4600 c-3 -5 -1 -10 4 -10 6 0 11 5 11 10 0 6 -2 10 -4 10 -3 0
-8 -4 -11 -10z"/>
<path d="M7250 4600 c0 -5 5 -10 11 -10 5 0 7 5 4 10 -3 6 -8 10 -11 10 -2 0
-4 -4 -4 -10z"/>
<path d="M7153 4565 c0 -8 4 -12 9 -9 5 3 6 10 3 15 -9 13 -12 11 -12 -6z"/>
<path d="M7076 4562 c-2 -4 -1 -14 4 -22 7 -11 9 -9 7 8 -1 24 -3 26 -11 14z"/>
<path d="M7116 4562 c-3 -5 1 -9 9 -9 8 0 12 4 9 9 -3 4 -7 8 -9 8 -2 0 -6 -4
-9 -8z"/>
<path d="M7235 4549 c-4 -6 -5 -12 -2 -15 2 -3 7 2 10 11 7 17 1 20 -8 4z"/>
<path d="M2490 4541 c0 -6 4 -13 10 -16 6 -3 7 1 4 9 -7 18 -14 21 -14 7z"/>
<path d="M2630 4541 c0 -6 4 -13 10 -16 6 -3 7 1 4 9 -7 18 -14 21 -14 7z"/>
<path d="M7095 4510 c-3 -6 -20 -8 -38 -5 -17 4 -28 3 -24 -1 14 -14 74 -12
74 2 0 17 -4 18 -12 4z"/>
<path d="M7355 4500 c-3 -5 -1 -10 4 -10 6 0 11 5 11 10 0 6 -2 10 -4 10 -3 0
-8 -4 -11 -10z"/>
<path d="M2380 4480 c-12 -7 -10 -9 7 -7 12 0 19 5 17 9 -6 10 -6 10 -24 -2z"/>
<path d="M7136 4467 c3 -10 9 -15 12 -12 3 3 0 11 -7 18 -10 9 -11 8 -5 -6z"/>
<path d="M2490 4440 c0 -5 5 -10 11 -10 5 0 7 5 4 10 -3 6 -8 10 -11 10 -2 0
-4 -4 -4 -10z"/>
<path d="M2315 4421 c-3 -5 -2 -12 3 -15 5 -3 9 1 9 9 0 17 -3 19 -12 6z"/>
<path d="M6991 4427 c2 -1 13 -9 24 -17 19 -14 19 -14 6 3 -7 9 -18 17 -24 17
-6 0 -8 -1 -6 -3z"/>
<path d="M7193 4415 c0 -8 4 -12 9 -9 5 3 6 10 3 15 -9 13 -12 11 -12 -6z"/>
<path d="M6915 4389 c-4 -6 -5 -12 -2 -15 2 -3 7 2 10 11 7 17 1 20 -8 4z"/>
<path d="M6966 4379 c4 -8 30 -6 38 2 3 3 -5 5 -19 5 -13 0 -22 -3 -19 -7z"/>
<path d="M2261 4361 c-10 -7 -7 -9 12 -8 14 1 23 5 20 10 -6 9 -15 9 -32 -2z"/>
<path d="M7002 4358 c-15 -15 -15 -28 0 -28 6 0 8 3 5 7 -4 3 -2 12 4 20 14
16 7 17 -9 1z"/>
<path d="M6879 4343 c0 -5 -2 -16 -4 -26 -2 -11 -1 -16 3 -13 8 8 14 46 7 46
-3 0 -5 -3 -6 -7z"/>
<path d="M6925 4339 c-3 -4 2 -6 10 -5 21 3 28 13 10 13 -9 0 -18 -4 -20 -8z"/>
<path d="M7067 4339 c7 -7 15 -10 18 -7 3 3 -2 9 -12 12 -14 6 -15 5 -6 -5z"/>
<path d="M6996 4307 c3 -10 9 -15 12 -12 3 3 0 11 -7 18 -10 9 -11 8 -5 -6z"/>
<path d="M2355 4280 c-3 -5 -1 -10 4 -10 6 0 11 5 11 10 0 6 -2 10 -4 10 -3 0
-8 -4 -11 -10z"/>
<path d="M6821 4264 c0 -11 3 -14 6 -6 3 7 2 16 -1 19 -3 4 -6 -2 -5 -13z"/>
<path d="M2315 4260 c3 -5 8 -10 11 -10 2 0 4 5 4 10 0 6 -5 10 -11 10 -5 0
-7 -4 -4 -10z"/>
<path d="M6926 4258 c3 -5 10 -6 15 -3 13 9 11 12 -6 12 -8 0 -12 -4 -9 -9z"/>
<path d="M6975 4240 c-3 -5 -1 -10 4 -10 6 0 11 5 11 10 0 6 -2 10 -4 10 -3 0
-8 -4 -11 -10z"/>
<path d="M2125 4220 c-3 -6 1 -7 9 -4 18 7 21 14 7 14 -6 0 -13 -4 -16 -10z"/>
<path d="M2310 4220 c0 -5 5 -10 11 -10 5 0 7 5 4 10 -3 6 -8 10 -11 10 -2 0
-4 -4 -4 -10z"/>
<path d="M6760 4216 c0 -8 4 -17 9 -20 5 -4 7 3 4 14 -6 23 -13 26 -13 6z"/>
<path d="M6870 4226 c0 -2 7 -7 16 -10 8 -3 12 -2 9 4 -6 10 -25 14 -25 6z"/>
<path d="M2253 4195 c0 -8 4 -12 9 -9 5 3 6 10 3 15 -9 13 -12 11 -12 -6z"/>
<path d="M6800 4200 c-9 -6 -10 -10 -3 -10 6 0 15 5 18 10 8 12 4 12 -15 0z"/>
<path d="M6835 4202 c3 -3 0 -10 -5 -17 -7 -8 -5 -12 5 -12 8 0 13 3 10 5 -3
3 0 10 5 17 7 8 5 12 -5 12 -8 0 -13 -3 -10 -5z"/>
<path d="M6731 4193 c-1 -17 16 -25 25 -12 4 7 3 9 -4 5 -5 -3 -13 0 -15 6 -4
9 -6 10 -6 1z"/>
<path d="M2134 4156 c1 -8 5 -18 8 -22 4 -3 5 1 4 10 -1 8 -5 18 -8 22 -4 3
-5 -1 -4 -10z"/>
<path d="M6890 4159 c0 -5 5 -7 10 -4 6 3 10 8 10 11 0 2 -4 4 -10 4 -5 0 -10
-5 -10 -11z"/>
<path d="M6706 4138 c3 -5 10 -6 15 -3 13 9 11 12 -6 12 -8 0 -12 -4 -9 -9z"/>
<path d="M6755 4110 c-4 -6 -10 -8 -14 -6 -4 3 -8 -1 -8 -9 0 -13 4 -12 19 2
18 16 22 23 14 23 -3 0 -8 -5 -11 -10z"/>
<path d="M6670 4103 c0 -6 8 -17 18 -24 16 -13 16 -13 2 6 -8 11 -16 22 -17
24 -2 2 -3 0 -3 -6z"/>
<path d="M6625 4079 c-3 -4 2 -6 10 -5 21 3 28 13 10 13 -9 0 -18 -4 -20 -8z"/>
<path d="M6669 4043 c-13 -16 -12 -17 4 -4 9 7 17 15 17 17 0 8 -8 3 -21 -13z"/>
<path d="M6625 4039 c4 -5 1 -18 -6 -27 -11 -13 -8 -12 9 2 26 23 26 22 6 30
-9 3 -12 2 -9 -5z"/>
<path d="M6819 4048 c-5 -18 -6 -38 -1 -34 7 8 12 36 6 36 -2 0 -4 -1 -5 -2z"/>
<path d="M6560 4026 c0 -2 8 -10 18 -17 15 -13 16 -12 3 4 -13 16 -21 21 -21
13z"/>
<path d="M6719 4013 c-13 -16 -12 -17 4 -4 9 7 17 15 17 17 0 8 -8 3 -21 -13z"/>
<path d="M6643 3998 c-11 -19 -12 -37 -3 -43 5 -3 7 3 5 12 -1 10 2 24 8 31 5
6 7 12 4 12 -3 0 -9 -6 -14 -12z"/>
<path d="M6675 4001 c-3 -5 -2 -12 3 -15 5 -3 9 1 9 9 0 17 -3 19 -12 6z"/>
<path d="M6511 3972 c-7 -14 -6 -19 4 -19 8 0 11 7 7 16 -5 14 -4 14 14 1 18
-14 18 -14 5 3 -17 21 -18 21 -30 -1z"/>
<path d="M6590 3983 c0 -6 8 -17 18 -24 16 -13 16 -13 2 6 -8 11 -16 22 -17
24 -2 2 -3 0 -3 -6z"/>
<path d="M6573 3947 c0 -7 9 -14 20 -14 11 -1 18 -1 16 0 -2 2 -11 8 -20 15
-12 9 -16 9 -16 -1z"/>
<path d="M6697 3935 c-4 -8 -3 -16 1 -19 4 -3 9 4 9 15 2 23 -3 25 -10 4z"/>
<path d="M6650 3919 c0 -5 5 -7 10 -4 6 3 10 8 10 11 0 2 -4 4 -10 4 -5 0 -10
-5 -10 -11z"/>
<path d="M6574 3900 c0 -13 4 -16 10 -10 7 7 7 13 0 20 -6 6 -10 3 -10 -10z"/>
<path d="M6633 3895 c0 -8 4 -12 9 -9 5 3 6 10 3 15 -9 13 -12 11 -12 -6z"/>
<path d="M6435 3881 c-3 -5 0 -13 6 -17 7 -4 9 -3 5 4 -3 5 0 13 6 15 9 4 10
6 1 6 -6 1 -14 -3 -18 -8z"/>
<path d="M6459 3853 c-13 -17 -13 -17 6 -3 11 8 22 16 24 17 2 2 0 3 -6 3 -6
0 -17 -8 -24 -17z"/>
<path d="M6600 3860 c-9 -6 -10 -10 -3 -10 6 0 15 5 18 10 8 12 4 12 -15 0z"/>
<path d="M6385 3847 c-14 -11 -15 -16 -5 -22 8 -5 11 -4 7 2 -8 13 20 26 35
16 7 -3 8 -1 4 5 -9 15 -18 15 -41 -1z"/>
<path d="M6480 3840 c-9 -6 -10 -10 -3 -10 6 0 15 5 18 10 8 12 4 12 -15 0z"/>
<path d="M6350 3800 c0 -5 5 -10 10 -10 6 0 10 5 10 10 0 6 -4 10 -10 10 -5 0
-10 -4 -10 -10z"/>
<path d="M6530 3799 c0 -5 5 -7 10 -4 6 3 10 8 10 11 0 2 -4 4 -10 4 -5 0 -10
-5 -10 -11z"/>
<path d="M6570 3799 c0 -5 5 -7 10 -4 6 3 10 8 10 11 0 2 -4 4 -10 4 -5 0 -10
-5 -10 -11z"/>
<path d="M6433 3785 c0 -8 4 -12 9 -9 5 3 6 10 3 15 -9 13 -12 11 -12 -6z"/>
<path d="M7555 3789 c-4 -6 -5 -12 -2 -15 2 -3 7 2 10 11 7 17 1 20 -8 4z"/>
<path d="M6316 3762 c-3 -5 1 -9 9 -9 8 0 12 4 9 9 -3 4 -7 8 -9 8 -2 0 -6 -4
-9 -8z"/>
<path d="M6306 3723 c-6 -14 -5 -15 5 -6 7 7 10 15 7 18 -3 3 -9 -2 -12 -12z"/>
<path d="M6266 3704 c-23 -23 -20 -30 4 -9 11 10 20 20 20 22 0 7 -9 2 -24
-13z"/>
<path d="M6330 3716 c0 -2 8 -10 18 -17 15 -13 16 -12 3 4 -13 16 -21 21 -21
13z"/>
<path d="M6374 3700 c0 -13 4 -16 10 -10 7 7 7 13 0 20 -6 6 -10 3 -10 -10z"/>
<path d="M6426 3698 c3 -5 10 -6 15 -3 13 9 11 12 -6 12 -8 0 -12 -4 -9 -9z"/>
<path d="M7614 3696 c1 -8 5 -18 8 -22 4 -3 5 1 4 10 -1 8 -5 18 -8 22 -4 3
-5 -1 -4 -10z"/>
<path d="M6310 3696 c0 -2 8 -10 18 -17 15 -13 16 -12 3 4 -13 16 -21 21 -21
13z"/>
<path d="M7549 3663 c-13 -16 -12 -17 4 -4 16 13 21 21 13 21 -2 0 -10 -8 -17
-17z"/>
<path d="M6280 3635 c-7 -9 -11 -17 -9 -20 3 -2 10 5 17 15 14 24 10 26 -8 5z"/>
<path d="M7566 3642 c-3 -5 1 -9 9 -9 8 0 12 4 9 9 -3 4 -7 8 -9 8 -2 0 -6 -4
-9 -8z"/>
<path d="M7615 3641 c-3 -5 -2 -12 3 -15 5 -3 9 1 9 9 0 17 -3 19 -12 6z"/>
<path d="M6217 3629 c7 -7 15 -10 18 -7 3 3 -2 9 -12 12 -14 6 -15 5 -6 -5z"/>
<path d="M6195 3611 c-3 -5 -2 -12 3 -15 5 -3 9 1 9 9 0 17 -3 19 -12 6z"/>
<path d="M7606 3602 c-3 -5 1 -9 9 -9 8 0 12 4 9 9 -3 4 -7 8 -9 8 -2 0 -6 -4
-9 -8z"/>
<path d="M6250 3596 c0 -2 8 -10 18 -17 15 -13 16 -12 3 4 -13 16 -21 21 -21
13z"/>
<path d="M7700 3586 c0 -2 8 -10 18 -17 15 -13 16 -12 3 4 -13 16 -21 21 -21
13z"/>
<path d="M6196 3558 c3 -5 10 -6 15 -3 13 9 11 12 -6 12 -8 0 -12 -4 -9 -9z"/>
<path d="M6330 3559 c0 -5 5 -7 10 -4 6 3 10 8 10 11 0 2 -4 4 -10 4 -5 0 -10
-5 -10 -11z"/>
<path d="M7515 3550 c-4 -6 -11 -8 -16 -5 -5 4 -9 1 -9 -4 0 -16 16 -13 30 4
7 8 10 15 7 15 -3 0 -9 -5 -12 -10z"/>
<path d="M6225 3540 c-3 -6 1 -7 9 -4 18 7 21 14 7 14 -6 0 -13 -4 -16 -10z"/>
<path d="M7587 3539 c7 -7 15 -10 18 -7 3 3 -2 9 -12 12 -14 6 -15 5 -6 -5z"/>
<path d="M6119 3513 c-13 -16 -12 -17 4 -4 16 13 21 21 13 21 -2 0 -10 -8 -17
-17z"/>
<path d="M6090 3511 c0 -7 -5 -9 -12 -5 -7 5 -8 3 -3 -5 5 -9 10 -10 18 -2 6
6 8 14 4 18 -4 3 -7 1 -7 -6z"/>
<path d="M6175 3509 c-4 -6 -5 -12 -2 -15 2 -3 7 2 10 11 7 17 1 20 -8 4z"/>
<path d="M7494 3506 c1 -8 5 -18 8 -22 4 -3 5 1 4 10 -1 8 -5 18 -8 22 -4 3
-5 -1 -4 -10z"/>
<path d="M7586 3498 c3 -5 10 -6 15 -3 13 9 11 12 -6 12 -8 0 -12 -4 -9 -9z"/>
<path d="M6250 3480 c0 -5 5 -10 11 -10 5 0 7 5 4 10 -3 6 -8 10 -11 10 -2 0
-4 -4 -4 -10z"/>
<path d="M6093 3467 c0 -8 12 -13 28 -13 15 0 26 3 23 8 -3 5 -10 6 -15 2 -5
-3 -16 -1 -23 5 -9 8 -13 7 -13 -2z"/>
<path d="M6175 3469 c-4 -6 -5 -12 -2 -15 2 -3 7 2 10 11 7 17 1 20 -8 4z"/>
<path d="M6016 3462 c-3 -5 1 -9 9 -9 8 0 12 4 9 9 -3 4 -7 8 -9 8 -2 0 -6 -4
-9 -8z"/>
<path d="M7433 3455 c0 -8 4 -12 9 -9 5 3 6 10 3 15 -9 13 -12 11 -12 -6z"/>
<path d="M7486 3462 c-3 -5 1 -9 9 -9 8 0 12 4 9 9 -3 4 -7 8 -9 8 -2 0 -6 -4
-9 -8z"/>
<path d="M6104 3422 c23 -26 23 -26 23 -7 0 8 -3 13 -5 10 -3 -3 -12 1 -21 7
-10 8 -9 4 3 -10z"/>
<path d="M7454 3420 c0 -13 4 -16 10 -10 7 7 7 13 0 20 -6 6 -10 3 -10 -10z"/>
<path d="M6026 3403 c-6 -14 -5 -15 5 -6 7 7 10 15 7 18 -3 3 -9 -2 -12 -12z"/>
<path d="M5987 3399 c7 -7 15 -10 18 -7 3 3 -2 9 -12 12 -14 6 -15 5 -6 -5z"/>
<path d="M6170 3400 c0 -5 5 -10 11 -10 5 0 7 5 4 10 -3 6 -8 10 -11 10 -2 0
-4 -4 -4 -10z"/>
<path d="M7397 3388 c19 -21 31 -24 14 -4 -9 11 -9 15 1 19 7 3 3 4 -9 4 -21
-1 -21 -2 -6 -19z"/>
<path d="M7535 3400 c3 -5 8 -10 11 -10 2 0 4 5 4 10 0 6 -5 10 -11 10 -5 0
-7 -4 -4 -10z"/>
<path d="M5971 3374 c0 -11 3 -14 6 -6 3 7 2 16 -1 19 -3 4 -6 -2 -5 -13z"/>
<path d="M6040 3380 c-12 -7 -10 -9 7 -7 12 0 19 5 17 9 -6 10 -6 10 -24 -2z"/>
<path d="M7436 3379 c4 -8 30 -6 38 2 3 3 -5 5 -19 5 -13 0 -22 -3 -19 -7z"/>
<path d="M6055 3349 c-4 -6 -5 -12 -2 -15 2 -3 7 2 10 11 7 17 1 20 -8 4z"/>
<path d="M5970 3341 c0 -6 4 -13 10 -16 6 -3 7 1 4 9 -7 18 -14 21 -14 7z"/>
<path d="M7379 3333 c-13 -16 -12 -17 4 -4 16 13 21 21 13 21 -2 0 -10 -8 -17
-17z"/>
<path d="M5915 3311 c-3 -5 0 -13 6 -17 7 -4 9 -3 5 4 -3 5 0 13 6 15 9 4 10
6 1 6 -6 1 -14 -3 -18 -8z"/>
<path d="M7304 3298 l-19 -23 23 19 c12 11 22 21 22 23 0 8 -8 2 -26 -19z"/>
<path d="M7393 3293 c0 -9 4 -10 14 -2 7 6 13 12 13 14 0 1 -6 2 -13 2 -8 0
-14 -6 -14 -14z"/>
<path d="M7470 3306 c0 -2 7 -7 16 -10 8 -3 12 -2 9 4 -6 10 -25 14 -25 6z"/>
<path d="M7230 3270 c-9 -6 -10 -10 -3 -10 6 0 15 5 18 10 8 12 4 12 -15 0z"/>
<path d="M7285 3259 c-3 -4 2 -6 10 -5 21 3 28 13 10 13 -9 0 -18 -4 -20 -8z"/>
<path d="M7350 3261 c0 -6 4 -13 10 -16 6 -3 7 1 4 9 -7 18 -14 21 -14 7z"/>
<path d="M7435 3260 c3 -5 8 -10 11 -10 2 0 4 5 4 10 0 6 -5 10 -11 10 -5 0
-7 -4 -4 -10z"/>
<path d="M5954 3245 c1 -8 8 -21 16 -28 12 -10 12 -9 2 4 -6 9 -9 18 -6 21 3
3 1 9 -4 12 -6 3 -9 -1 -8 -9z"/>
<path d="M5986 3238 c3 -4 9 -8 15 -8 5 0 9 4 9 8 0 5 -7 9 -15 9 -8 0 -12 -4
-9 -9z"/>
<path d="M7214 3221 c0 -11 5 -17 13 -14 10 4 11 9 2 19 -15 18 -15 18 -15 -5z"/>
<path d="M7175 3221 c-3 -5 -2 -12 3 -15 5 -3 9 1 9 9 0 17 -3 19 -12 6z"/>
<path d="M7240 3195 c-7 -8 -9 -15 -5 -15 4 0 1 -8 -6 -17 -13 -16 -12 -17 4
-4 9 8 15 16 12 19 -3 3 0 11 6 19 6 7 9 13 6 13 -2 0 -10 -7 -17 -15z"/>
<path d="M7187 3171 c-3 -13 -1 -18 9 -14 7 2 10 11 7 19 -7 19 -10 18 -16 -5z"/>
<path d="M7370 3146 c0 -2 7 -7 16 -10 8 -3 12 -2 9 4 -6 10 -25 14 -25 6z"/>
<path d="M7295 3120 c-3 -5 -1 -10 4 -10 6 0 11 5 11 10 0 6 -2 10 -4 10 -3 0
-8 -4 -11 -10z"/>
<path d="M7071 3067 c2 -1 13 -9 24 -17 19 -14 19 -14 6 3 -7 9 -18 17 -24 17
-6 0 -8 -1 -6 -3z"/>
<path d="M7166 3038 c3 -5 10 -6 15 -3 13 9 11 12 -6 12 -8 0 -12 -4 -9 -9z"/>
<path d="M7001 3024 c0 -11 3 -14 6 -6 3 7 2 16 -1 19 -3 4 -6 -2 -5 -13z"/>
<path d="M7150 3020 c0 -5 5 -10 11 -10 5 0 7 5 4 10 -3 6 -8 10 -11 10 -2 0
-4 -4 -4 -10z"/>
<path d="M7060 3006 c0 -2 8 -10 18 -17 15 -13 16 -12 3 4 -13 16 -21 21 -21
13z"/>
<path d="M7026 2978 c3 -5 9 -7 12 -4 3 3 12 0 21 -6 13 -10 14 -10 4 2 -15
16 -46 23 -37 8z"/>
<path d="M6956 2962 c-3 -5 1 -9 9 -9 8 0 12 4 9 9 -3 4 -7 8 -9 8 -2 0 -6 -4
-9 -8z"/>
<path d="M6920 2941 c0 -11 4 -22 9 -25 4 -3 6 6 3 19 -5 30 -12 33 -12 6z"/>
<path d="M6954 2916 c0 -12 6 -23 13 -23 9 0 10 4 3 12 -5 7 -7 14 -4 17 3 3
1 8 -3 11 -5 3 -9 -5 -9 -17z"/>
<path d="M6980 2925 c0 -2 6 -8 13 -14 10 -8 14 -7 14 2 0 8 -6 14 -14 14 -7
0 -13 -1 -13 -2z"/>
<path d="M6894 2899 c0 -13 3 -15 13 -7 7 6 13 12 13 13 0 2 -6 5 -13 8 -7 3
-13 -3 -13 -14z"/>
<path d="M6920 2875 c-7 -8 -9 -15 -5 -15 4 0 1 -8 -6 -17 -13 -16 -12 -17 4
-4 9 8 15 16 12 19 -3 3 0 11 6 19 6 7 9 13 6 13 -2 0 -10 -7 -17 -15z"/>
<path d="M7033 2875 c0 -8 4 -12 9 -9 5 3 6 10 3 15 -9 13 -12 11 -12 -6z"/>
<path d="M6975 2870 c-4 -6 -10 -8 -15 -5 -5 3 -11 1 -14 -4 -8 -13 22 -7 36
7 7 7 9 12 6 12 -4 0 -10 -5 -13 -10z"/>
<path d="M6875 2862 c3 -3 0 -10 -5 -17 -7 -8 -5 -12 5 -12 8 0 13 3 10 5 -3
3 0 10 5 17 7 8 5 12 -5 12 -8 0 -13 -3 -10 -5z"/>
<path d="M7025 2820 c-3 -6 1 -7 9 -4 18 7 21 14 7 14 -6 0 -13 -4 -16 -10z"/>
<path d="M6796 2758 c3 -5 10 -6 15 -3 13 9 11 12 -6 12 -8 0 -12 -4 -9 -9z"/>
<path d="M6935 2760 c3 -5 8 -10 11 -10 2 0 4 5 4 10 0 6 -5 10 -11 10 -5 0
-7 -4 -4 -10z"/>
<path d="M6783 2742 c10 -10 15 -21 12 -24 -3 -2 2 -5 10 -5 12 0 10 6 -7 24
-25 27 -39 32 -15 5z"/>
<path d="M6747 2727 c-3 -7 3 -13 14 -13 13 0 15 3 7 13 -6 7 -12 13 -13 13
-2 0 -5 -6 -8 -13z"/>
<path d="M6715 2710 c-4 -6 -10 -8 -14 -6 -4 3 -13 0 -21 -5 -11 -7 -10 -8 8
-6 20 3 56 27 40 27 -4 0 -10 -5 -13 -10z"/>
<path d="M6860 2705 c0 -2 6 -8 13 -14 10 -8 14 -7 14 2 0 8 -6 14 -14 14 -7
0 -13 -1 -13 -2z"/>
<path d="M6695 2669 c-4 -6 -5 -12 -2 -15 2 -3 7 2 10 11 7 17 1 20 -8 4z"/>
<path d="M6730 2676 c0 -2 8 -10 18 -17 15 -13 16 -12 3 4 -13 16 -21 21 -21
13z"/>
<path d="M6650 2666 c0 -2 7 -7 16 -10 8 -3 12 -2 9 4 -6 10 -25 14 -25 6z"/>
<path d="M6715 2640 c3 -5 8 -10 11 -10 2 0 4 5 4 10 0 6 -5 10 -11 10 -5 0
-7 -4 -4 -10z"/>
<path d="M6810 2639 c0 -5 5 -7 10 -4 6 3 10 8 10 11 0 2 -4 4 -10 4 -5 0 -10
-5 -10 -11z"/>
<path d="M6690 2636 c0 -2 8 -10 18 -17 15 -13 16 -12 3 4 -13 16 -21 21 -21
13z"/>
<path d="M6614 2622 c4 -3 14 -7 22 -8 9 -1 13 0 10 4 -4 3 -14 7 -22 8 -9 1
-13 0 -10 -4z"/>
<path d="M2633 2605 c0 -8 4 -12 9 -9 5 3 6 10 3 15 -9 13 -12 11 -12 -6z"/>
<path d="M6615 2590 c-4 -6 -12 -7 -18 -4 -7 4 -8 3 -4 -1 13 -15 34 -14 34 1
0 17 -4 18 -12 4z"/>
<path d="M2589 2563 c-13 -16 -12 -17 4 -4 16 13 21 21 13 21 -2 0 -10 -8 -17
-17z"/>
<path d="M6587 2550 c3 -10 11 -24 19 -31 10 -8 10 -3 -2 20 -18 35 -24 40
-17 11z"/>
<path d="M2605 2540 c-3 -6 1 -7 9 -4 18 7 21 14 7 14 -6 0 -13 -4 -16 -10z"/>
<path d="M6637 2535 c-4 -8 -3 -16 1 -19 4 -3 9 4 9 15 2 23 -3 25 -10 4z"/>
<path d="M6716 2527 c3 -10 9 -15 12 -12 3 3 0 11 -7 18 -10 9 -11 8 -5 -6z"/>
<path d="M2531 2507 c-8 -10 -7 -14 2 -14 8 0 14 6 14 14 0 7 -1 13 -2 13 -2
0 -8 -6 -14 -13z"/>
<path d="M6573 2507 c0 -7 9 -14 20 -14 11 -1 18 -1 16 0 -2 2 -11 8 -20 15
-12 9 -16 9 -16 -1z"/>
<path d="M2590 2480 c0 -5 5 -10 11 -10 5 0 7 5 4 10 -3 6 -8 10 -11 10 -2 0
-4 -4 -4 -10z"/>
<path d="M2556 2467 c3 -10 9 -15 12 -12 3 3 0 11 -7 18 -10 9 -11 8 -5 -6z"/>
<path d="M6606 2458 c3 -5 10 -6 15 -3 13 9 11 12 -6 12 -8 0 -12 -4 -9 -9z"/>
<path d="M6509 2443 c-13 -16 -12 -17 4 -4 16 13 21 21 13 21 -2 0 -10 -8 -17
-17z"/>
<path d="M6465 2439 c4 -5 1 -18 -6 -27 -11 -13 -8 -12 9 2 26 23 26 22 6 30
-9 3 -12 2 -9 -5z"/>
<path d="M2454 2420 c0 -13 4 -16 10 -10 7 7 7 13 0 20 -6 6 -10 3 -10 -10z"/>
<path d="M2486 2422 c-3 -5 1 -9 9 -9 8 0 12 4 9 9 -3 4 -7 8 -9 8 -2 0 -6 -4
-9 -8z"/>
<path d="M6559 2413 c-13 -16 -12 -17 4 -4 9 7 17 15 17 17 0 8 -8 3 -21 -13z"/>
<path d="M6600 2420 c-9 -6 -10 -10 -3 -10 6 0 15 5 18 10 8 12 4 12 -15 0z"/>
<path d="M6635 2411 c-3 -5 -2 -12 3 -15 5 -3 9 1 9 9 0 17 -3 19 -12 6z"/>
<path d="M6479 2393 c-13 -16 -12 -17 4 -4 9 7 17 15 17 17 0 8 -8 3 -21 -13z"/>
<path d="M6403 2390 c-13 -5 -23 -11 -23 -14 0 -7 40 6 46 15 6 10 6 10 -23
-1z"/>
<path d="M2486 2378 c3 -5 10 -6 15 -3 13 9 11 12 -6 12 -8 0 -12 -4 -9 -9z"/>
<path d="M6450 2381 c0 -6 4 -13 10 -16 6 -3 7 1 4 9 -7 18 -14 21 -14 7z"/>
<path d="M6396 2362 c-3 -5 1 -9 9 -9 8 0 12 4 9 9 -3 4 -7 8 -9 8 -2 0 -6 -4
-9 -8z"/>
<path d="M6550 2365 c0 -7 30 -13 34 -7 3 4 -4 9 -15 9 -10 1 -19 0 -19 -2z"/>
<path d="M2456 2347 c3 -10 9 -15 12 -12 3 3 0 11 -7 18 -10 9 -11 8 -5 -6z"/>
<path d="M2355 2340 c3 -5 8 -10 11 -10 2 0 4 5 4 10 0 6 -5 10 -11 10 -5 0
-7 -4 -4 -10z"/>
<path d="M6345 2340 c-3 -6 1 -7 9 -4 18 7 21 14 7 14 -6 0 -13 -4 -16 -10z"/>
<path d="M6446 2342 c-3 -5 1 -9 9 -9 8 0 12 4 9 9 -3 4 -7 8 -9 8 -2 0 -6 -4
-9 -8z"/>
<path d="M2515 2320 c3 -5 8 -10 11 -10 2 0 4 5 4 10 0 6 -5 10 -11 10 -5 0
-7 -4 -4 -10z"/>
<path d="M2330 2317 c0 -2 6 -10 14 -16 11 -9 16 -9 22 1 4 7 4 10 -1 6 -4 -4
-14 -3 -22 3 -7 6 -13 9 -13 6z"/>
<path d="M6414 2309 c-3 -6 -2 -15 3 -20 5 -5 9 -1 9 11 0 23 -2 24 -12 9z"/>
<path d="M6350 2302 c0 -4 11 -8 25 -8 28 0 24 8 -5 13 -11 2 -20 -1 -20 -5z"/>
<path d="M2296 2267 c3 -10 9 -15 12 -12 3 3 0 11 -7 18 -10 9 -11 8 -5 -6z"/>
<path d="M2550 2276 c0 -2 8 -10 18 -17 15 -13 16 -12 3 4 -13 16 -21 21 -21
13z"/>
<path d="M6308 2273 c7 -3 16 -2 19 1 4 3 -2 6 -13 5 -11 0 -14 -3 -6 -6z"/>
<path d="M6257 2256 c-4 -10 -1 -13 8 -9 8 3 12 9 9 14 -7 12 -11 11 -17 -5z"/>
<path d="M6379 2253 c-13 -16 -12 -17 4 -4 9 7 17 15 17 17 0 8 -8 3 -21 -13z"/>
<path d="M2375 2240 c3 -5 8 -10 11 -10 2 0 4 5 4 10 0 6 -5 10 -11 10 -5 0
-7 -4 -4 -10z"/>
<path d="M6296 2227 c3 -10 9 -15 12 -12 3 3 0 11 -7 18 -10 9 -11 8 -5 -6z"/>
<path d="M6269 2203 c-13 -16 -12 -17 4 -4 16 13 21 21 13 21 -2 0 -10 -8 -17
-17z"/>
<path d="M2375 2201 c-3 -5 -2 -12 3 -15 5 -3 9 1 9 9 0 17 -3 19 -12 6z"/>
<path d="M2250 2160 c0 -5 5 -10 11 -10 5 0 7 5 4 10 -3 6 -8 10 -11 10 -2 0
-4 -4 -4 -10z"/>
<path d="M2296 2158 c3 -5 10 -6 15 -3 13 9 11 12 -6 12 -8 0 -12 -4 -9 -9z"/>
<path d="M6155 2161 c-3 -5 2 -17 11 -25 22 -22 31 -20 11 2 -10 10 -14 22
-10 25 3 4 4 7 0 7 -3 0 -8 -4 -12 -9z"/>
<path d="M6277 2148 c19 -21 31 -25 14 -5 -6 8 -9 16 -6 19 3 2 -2 5 -10 5
-13 0 -13 -3 2 -19z"/>
<path d="M2019 2148 c-5 -18 -6 -38 -1 -34 7 8 12 36 6 36 -2 0 -4 -1 -5 -2z"/>
<path d="M2220 2146 c0 -2 8 -10 18 -17 15 -13 16 -12 3 4 -13 16 -21 21 -21
13z"/>
<path d="M2046 2122 c-3 -5 1 -9 9 -9 8 0 12 4 9 9 -3 4 -7 8 -9 8 -2 0 -6 -4
-9 -8z"/>
<path d="M2095 2120 c3 -5 8 -10 11 -10 2 0 4 5 4 10 0 6 -5 10 -11 10 -5 0
-7 -4 -4 -10z"/>
<path d="M2179 2128 c-5 -18 -6 -38 -1 -34 7 8 12 36 6 36 -2 0 -4 -1 -5 -2z"/>
<path d="M6195 2091 c-3 -5 -2 -12 3 -15 5 -3 9 1 9 9 0 17 -3 19 -12 6z"/>
<path d="M2069 2063 c-13 -16 -12 -17 4 -4 9 7 17 15 17 17 0 8 -8 3 -21 -13z"/>
<path d="M6068 2032 c3 -9 1 -13 -5 -9 -5 3 -10 0 -10 -8 0 -11 4 -12 14 -4
10 9 18 8 31 -2 16 -13 16 -13 -1 7 -9 11 -15 23 -12 26 3 2 -1 5 -9 5 -8 0
-12 -6 -8 -15z"/>
<path d="M6112 2031 c7 -9 13 -18 15 -20 1 -2 1 5 0 16 0 11 -7 20 -14 20 -10
0 -10 -4 -1 -16z"/>
<path d="M6170 2019 c0 -5 5 -7 10 -4 6 3 10 8 10 11 0 2 -4 4 -10 4 -5 0 -10
-5 -10 -11z"/>
<path d="M6215 2000 c3 -5 8 -10 11 -10 2 0 4 5 4 10 0 6 -5 10 -11 10 -5 0
-7 -4 -4 -10z"/>
<path d="M6065 1960 c-3 -6 1 -7 9 -4 18 7 21 14 7 14 -6 0 -13 -4 -16 -10z"/>
<path d="M6105 1960 c-3 -6 1 -7 9 -4 18 7 21 14 7 14 -6 0 -13 -4 -16 -10z"/>
<path d="M5935 1939 c-3 -4 2 -6 10 -5 21 3 28 13 10 13 -9 0 -18 -4 -20 -8z"/>
<path d="M6195 1940 c-3 -5 -1 -10 4 -10 6 0 11 5 11 10 0 6 -2 10 -4 10 -3 0
-8 -4 -11 -10z"/>
<path d="M6030 1916 c7 -7 13 -7 20 0 6 6 3 10 -10 10 -13 0 -16 -4 -10 -10z"/>
<path d="M5915 1909 c-4 -6 -5 -12 -2 -15 2 -3 7 2 10 11 7 17 1 20 -8 4z"/>
<path d="M5990 1899 c0 -5 5 -7 10 -4 6 3 10 8 10 11 0 2 -4 4 -10 4 -5 0 -10
-5 -10 -11z"/>
<path d="M5950 1896 c0 -2 8 -10 18 -17 15 -13 16 -12 3 4 -13 16 -21 21 -21
13z"/>
<path d="M5886 1862 c-3 -5 1 -9 9 -9 8 0 12 4 9 9 -3 4 -7 8 -9 8 -2 0 -6 -4
-9 -8z"/>
<path d="M5933 1853 c0 -9 4 -10 14 -2 7 6 13 12 13 14 0 1 -6 2 -13 2 -8 0
-14 -6 -14 -14z"/>
<path d="M5854 1839 c-4 -7 -3 -9 4 -5 17 10 25 -13 11 -32 -12 -15 -12 -15 7
1 11 9 23 15 26 12 2 -3 5 2 5 10 0 8 -4 12 -9 9 -5 -3 -15 -1 -23 6 -10 8
-15 8 -21 -1z"/>
<path d="M5834 1816 c1 -8 5 -18 8 -22 4 -3 5 1 4 10 -1 8 -5 18 -8 22 -4 3
-5 -1 -4 -10z"/>
<path d="M6010 1800 c0 -5 5 -10 11 -10 5 0 7 5 4 10 -3 6 -8 10 -11 10 -2 0
-4 -4 -4 -10z"/>
<path d="M5891 1787 c-8 -10 -7 -14 2 -14 8 0 14 6 14 14 0 7 -1 13 -2 13 -2
0 -8 -6 -14 -13z"/>
<path d="M5916 1762 c-2 -4 -1 -14 4 -22 7 -11 9 -9 7 8 -1 24 -3 26 -11 14z"/>
<path d="M5776 1733 c-6 -14 -5 -15 5 -6 7 7 10 15 7 18 -3 3 -9 -2 -12 -12z"/>
<path d="M5950 1741 c0 -6 4 -13 10 -16 6 -3 7 1 4 9 -7 18 -14 21 -14 7z"/>
<path d="M5746 1723 c-6 -14 -5 -15 5 -6 7 7 10 15 7 18 -3 3 -9 -2 -12 -12z"/>
<path d="M5799 1713 c-13 -16 -12 -17 4 -4 16 13 21 21 13 21 -2 0 -10 -8 -17
-17z"/>
<path d="M5939 1708 c-5 -18 -6 -38 -1 -34 7 8 12 36 6 36 -2 0 -4 -1 -5 -2z"/>
<path d="M5715 1689 c-4 -6 -5 -12 -2 -15 2 -3 7 2 10 11 7 17 1 20 -8 4z"/>
<path d="M5780 1686 c0 -2 8 -10 18 -17 15 -13 16 -12 3 4 -13 16 -21 21 -21
13z"/>
<path d="M5890 1680 c0 -5 5 -10 11 -10 5 0 7 5 4 10 -3 6 -8 10 -11 10 -2 0
-4 -4 -4 -10z"/>
<path d="M5670 1642 c0 -5 7 -9 15 -9 8 0 12 4 9 9 -3 4 -9 8 -15 8 -5 0 -9
-4 -9 -8z"/>
<path d="M5775 1629 c-4 -6 -5 -12 -2 -15 2 -3 7 2 10 11 7 17 1 20 -8 4z"/>
<path d="M5650 1621 c0 -6 4 -13 10 -16 6 -3 7 1 4 9 -7 18 -14 21 -14 7z"/>
<path d="M5835 1591 c-3 -5 -2 -12 3 -15 5 -3 9 1 9 9 0 17 -3 19 -12 6z"/>
<path d="M5750 1582 c0 -5 7 -9 15 -9 8 0 12 4 9 9 -3 4 -9 8 -15 8 -5 0 -9
-4 -9 -8z"/>
<path d="M5570 1565 c0 -7 30 -13 34 -7 3 4 -4 9 -15 9 -10 1 -19 0 -19 -2z"/>
<path d="M5637 1548 c19 -21 31 -25 14 -5 -6 8 -9 16 -6 19 3 2 -2 5 -10 5
-13 0 -13 -3 2 -19z"/>
<path d="M5670 1555 c5 -7 6 -16 2 -21 -4 -5 -3 -5 2 -1 15 12 15 34 0 34 -9
0 -11 -4 -4 -12z"/>
<path d="M5570 1541 c0 -6 4 -13 10 -16 6 -3 7 1 4 9 -7 18 -14 21 -14 7z"/>
<path d="M5550 1500 c0 -5 5 -10 10 -10 6 0 10 5 10 10 0 6 -4 10 -10 10 -5 0
-10 -4 -10 -10z"/>
<path d="M5510 1463 c0 -6 8 -17 18 -24 16 -13 16 -13 2 6 -8 11 -16 22 -17
24 -2 2 -3 0 -3 -6z"/>
<path d="M5555 1440 c6 -30 16 -40 12 -12 -2 12 -6 24 -10 28 -3 4 -4 -4 -2
-16z"/>
<path d="M5590 1436 c7 -7 13 -7 20 0 6 6 3 10 -10 10 -13 0 -16 -4 -10 -10z"/>
<path d="M5696 1442 c-3 -5 1 -9 9 -9 8 0 12 4 9 9 -3 4 -7 8 -9 8 -2 0 -6 -4
-9 -8z"/>
<path d="M5410 1381 c0 -6 4 -13 10 -16 6 -3 7 1 4 9 -7 18 -14 21 -14 7z"/>
<path d="M5435 1380 c3 -5 8 -10 11 -10 2 0 4 5 4 10 0 6 -5 10 -11 10 -5 0
-7 -4 -4 -10z"/>
<path d="M5479 1338 c-5 -18 -6 -38 -1 -34 7 8 12 36 6 36 -2 0 -4 -1 -5 -2z"/>
<path d="M5388 1323 c6 -3 10 -9 6 -14 -8 -14 2 -11 14 4 8 10 6 13 -11 14
-12 0 -16 -1 -9 -4z"/>
<path d="M5425 1300 c-3 -6 1 -7 9 -4 18 7 21 14 7 14 -6 0 -13 -4 -16 -10z"/>
<path d="M5334 1269 c-3 -6 -2 -15 3 -20 5 -5 9 -1 9 11 0 23 -2 24 -12 9z"/>
<path d="M5413 1265 c0 -8 3 -13 5 -10 3 3 12 -1 21 -7 10 -8 9 -4 -3 10 -23
26 -23 26 -23 7z"/>
<path d="M5376 1253 c-6 -14 -5 -15 5 -6 7 7 10 15 7 18 -3 3 -9 -2 -12 -12z"/>
<path d="M5301 1237 c2 -1 13 -10 25 -20 17 -14 21 -14 21 -2 0 8 -4 12 -8 9
-4 -2 -10 0 -14 6 -3 5 -11 10 -17 10 -6 0 -9 -1 -7 -3z"/>
<path d="M5242 1218 c-7 -7 -12 -17 -12 -22 0 -6 5 -3 11 7 6 9 14 15 20 12 5
-4 9 -1 9 4 0 14 -13 14 -28 -1z"/>
<path d="M5255 1189 c-4 -6 -5 -12 -2 -15 2 -3 7 2 10 11 7 17 1 20 -8 4z"/>
<path d="M5194 1178 c-4 -7 -4 -10 1 -6 4 4 15 2 24 -5 14 -11 14 -10 2 6 -16
20 -18 21 -27 5z"/>
<path d="M5333 1175 c0 -8 4 -12 9 -9 5 3 6 10 3 15 -9 13 -12 11 -12 -6z"/>
<path d="M5416 1162 c-3 -5 1 -9 9 -9 8 0 12 4 9 9 -3 4 -7 8 -9 8 -2 0 -6 -4
-9 -8z"/>
<path d="M5184 1144 c-18 -14 -18 -15 4 -4 12 6 22 13 22 15 0 8 -5 6 -26 -11z"/>
<path d="M5250 1156 c0 -2 8 -10 18 -17 15 -13 16 -12 3 4 -13 16 -21 21 -21
13z"/>
<path d="M5295 1149 c-4 -6 -5 -12 -2 -15 2 -3 7 2 10 11 7 17 1 20 -8 4z"/>
<path d="M5216 1133 c-6 -14 -5 -15 5 -6 7 7 10 15 7 18 -3 3 -9 -2 -12 -12z"/>
<path d="M5375 1141 c-3 -5 -2 -12 3 -15 5 -3 9 1 9 9 0 17 -3 19 -12 6z"/>
<path d="M5198 1098 c-9 -5 -6 -7 9 -5 12 2 25 6 28 8 8 9 -23 6 -37 -3z"/>
<path d="M5214 1069 c-3 -6 -2 -15 3 -20 5 -5 9 -1 9 11 0 23 -2 24 -12 9z"/>
<path d="M5104 1018 c10 -16 21 -28 24 -28 3 0 2 3 -1 7 -4 3 1 16 10 27 17
20 17 20 1 7 -15 -11 -21 -11 -35 0 -14 12 -14 10 1 -13z"/>
<path d="M5200 1020 c-9 -6 -10 -10 -3 -10 6 0 15 5 18 10 8 12 4 12 -15 0z"/>
<path d="M5077 1007 c-3 -8 1 -14 8 -14 7 0 11 6 8 14 -3 7 -6 13 -8 13 -2 0
-5 -6 -8 -13z"/>
<path d="M5145 1000 c-3 -6 1 -7 9 -4 18 7 21 14 7 14 -6 0 -13 -4 -16 -10z"/>
<path d="M5012 991 c-11 -6 -10 -10 0 -19 11 -8 14 -7 14 9 0 10 0 19 -1 19 0
0 -6 -4 -13 -9z"/>
<path d="M5186 982 c-3 -5 1 -9 9 -9 8 0 15 4 15 9 0 4 -4 8 -9 8 -6 0 -12 -4
-15 -8z"/>
<path d="M5070 956 c7 -7 13 -7 20 0 6 6 3 10 -10 10 -13 0 -16 -4 -10 -10z"/>
<path d="M5113 953 c0 -9 4 -10 14 -2 7 6 13 12 13 14 0 1 -6 2 -13 2 -8 0
-14 -6 -14 -14z"/>
<path d="M5000 945 c0 -2 6 -8 13 -14 10 -8 14 -7 14 2 0 8 -6 14 -14 14 -7 0
-13 -1 -13 -2z"/>
<path d="M4980 926 c0 -2 8 -10 18 -17 15 -13 16 -12 3 4 -13 16 -21 21 -21
13z"/>
<path d="M4910 903 c0 -6 8 -17 18 -24 16 -13 16 -13 2 6 -8 11 -16 22 -17 24
-2 2 -3 0 -3 -6z"/>
<path d="M4953 882 c1 -16 7 -29 14 -29 8 0 9 5 4 11 -5 6 -7 19 -6 29 2 9 0
17 -5 17 -4 0 -7 -13 -7 -28z"/>
<path d="M5130 900 c0 -5 5 -10 11 -10 5 0 7 5 4 10 -3 6 -8 10 -11 10 -2 0
-4 -4 -4 -10z"/>
<path d="M4877 872 c-15 -16 -15 -19 -2 -19 8 0 13 3 10 5 -3 3 0 11 6 19 17
20 5 16 -14 -5z"/>
<path d="M4990 876 c7 -7 13 -7 20 0 6 6 3 10 -10 10 -13 0 -16 -4 -10 -10z"/>
<path d="M5090 879 c0 -5 5 -7 10 -4 6 3 10 8 10 11 0 2 -4 4 -10 4 -5 0 -10
-5 -10 -11z"/>
<path d="M4909 843 c-13 -16 -12 -17 4 -4 16 13 21 21 13 21 -2 0 -10 -8 -17
-17z"/>
<path d="M4799 838 c-5 -18 -6 -38 -1 -34 7 8 12 36 6 36 -2 0 -4 -1 -5 -2z"/>
<path d="M4849 823 c-13 -16 -12 -17 4 -4 9 7 17 15 17 17 0 8 -8 3 -21 -13z"/>
<path d="M5080 820 c-8 -5 -10 -10 -5 -10 6 0 17 5 25 10 8 5 11 10 5 10 -5 0
-17 -5 -25 -10z"/>
<path d="M4739 808 c-7 -23 -5 -39 4 -45 7 -3 9 -3 5 2 -4 4 1 15 10 24 10 9
13 13 8 9 -14 -11 -28 -10 -21 2 3 6 4 10 1 10 -3 0 -6 -1 -7 -2z"/>
<path d="M5013 803 c4 -3 1 -13 -6 -22 -11 -14 -10 -14 5 -2 16 12 16 31 1 31
-4 0 -3 -3 0 -7z"/>
<path d="M4819 798 c-5 -18 -6 -38 -1 -34 7 8 12 36 6 36 -2 0 -4 -1 -5 -2z"/>
<path d="M5150 786 c0 -2 7 -7 16 -10 8 -3 12 -2 9 4 -6 10 -25 14 -25 6z"/>
<path d="M4713 754 c16 -20 52 -30 41 -12 -4 5 -9 7 -12 4 -3 -3 -15 2 -26 11
-21 18 -21 18 -3 -3z"/>
<path d="M4649 743 c-13 -16 -12 -17 4 -4 16 13 21 21 13 21 -2 0 -10 -8 -17
-17z"/>
<path d="M4874 749 c-3 -6 -2 -15 3 -20 5 -5 9 -1 9 11 0 23 -2 24 -12 9z"/>
<path d="M3465 740 c-3 -6 1 -7 9 -4 18 7 21 14 7 14 -6 0 -13 -4 -16 -10z"/>
<path d="M4680 746 c0 -2 8 -10 18 -17 15 -13 16 -12 3 4 -13 16 -21 21 -21
13z"/>
<path d="M4826 738 c3 -4 9 -8 15 -8 5 0 9 4 9 8 0 5 -7 9 -15 9 -8 0 -12 -4
-9 -9z"/>
<path d="M4634 689 c-3 -6 -2 -15 3 -20 5 -5 9 -1 9 11 0 23 -2 24 -12 9z"/>
<path d="M4436 682 c-2 -4 -1 -14 4 -22 7 -11 9 -9 7 8 -1 24 -3 26 -11 14z"/>
<path d="M4464 682 c4 -3 14 -7 22 -8 9 -1 13 0 10 4 -4 3 -14 7 -22 8 -9 1
-13 0 -10 -4z"/>
<path d="M4550 678 c0 -4 4 -8 9 -8 6 0 12 4 15 8 3 5 -1 9 -9 9 -8 0 -15 -4
-15 -9z"/>
<path d="M4735 680 c3 -5 8 -10 11 -10 2 0 4 5 4 10 0 6 -5 10 -11 10 -5 0 -7
-4 -4 -10z"/>
<path d="M4770 679 c0 -5 5 -7 10 -4 6 3 10 8 10 11 0 2 -4 4 -10 4 -5 0 -10
-5 -10 -11z"/>
<path d="M3629 663 c-13 -16 -12 -17 4 -4 16 13 21 21 13 21 -2 0 -10 -8 -17
-17z"/>
<path d="M4514 655 c0 -13 3 -22 7 -19 8 4 6 30 -2 38 -3 3 -5 -5 -5 -19z"/>
<path d="M4355 660 c-3 -5 -1 -10 4 -10 6 0 11 5 11 10 0 6 -2 10 -4 10 -3 0
-8 -4 -11 -10z"/>
<path d="M4590 666 c0 -2 7 -7 16 -10 8 -3 12 -2 9 4 -6 10 -25 14 -25 6z"/>
<path d="M3735 640 c3 -5 8 -10 11 -10 2 0 4 5 4 10 0 6 -5 10 -11 10 -5 0 -7
-4 -4 -10z"/>
<path d="M3907 639 c7 -7 15 -10 18 -7 3 3 -2 9 -12 12 -14 6 -15 5 -6 -5z"/>
<path d="M4239 633 c-13 -16 -12 -17 4 -4 16 13 21 21 13 21 -2 0 -10 -8 -17
-17z"/>
<path d="M4735 641 c-3 -5 -2 -12 3 -15 5 -3 9 1 9 9 0 17 -3 19 -12 6z"/>
<path d="M3673 625 c0 -8 4 -12 9 -9 5 3 6 10 3 15 -9 13 -12 11 -12 -6z"/>
<path d="M4175 631 c-3 -6 -14 -8 -25 -6 -10 2 -25 -4 -32 -13 -11 -15 -11
-15 2 -6 8 6 27 10 41 9 16 -1 26 3 26 12 0 15 -4 17 -12 4z"/>
<path d="M4259 613 c-13 -16 -12 -17 4 -4 16 13 21 21 13 21 -2 0 -10 -8 -17
-17z"/>
<path d="M3750 600 c0 -5 5 -10 11 -10 5 0 7 5 4 10 -3 6 -8 10 -11 10 -2 0
-4 -4 -4 -10z"/>
<path d="M4020 586 c0 -2 8 -10 18 -17 15 -13 16 -12 3 4 -13 16 -21 21 -21
13z"/>
<path d="M4396 573 c-6 -14 -5 -15 5 -6 7 7 10 15 7 18 -3 3 -9 -2 -12 -12z"/>
<path d="M4090 559 c0 -5 5 -7 10 -4 6 3 10 8 10 11 0 2 -4 4 -10 4 -5 0 -10
-5 -10 -11z"/>
<path d="M4335 560 c-3 -5 -1 -10 4 -10 6 0 11 5 11 10 0 6 -2 10 -4 10 -3 0
-8 -4 -11 -10z"/>
<path d="M4453 549 c-2 -23 3 -25 10 -4 4 8 3 16 -1 19 -4 3 -9 -4 -9 -15z"/>
<path d="M3775 541 c-3 -5 -2 -12 3 -15 5 -3 9 1 9 9 0 17 -3 19 -12 6z"/>
<path d="M4159 528 c-5 -18 -6 -38 -1 -34 7 8 12 36 6 36 -2 0 -4 -1 -5 -2z"/>
</g>
</svg>
