<svg id="visual" viewBox="0 0 960 540" width="960" height="540" xmlns="http://www.w3.org/2000/svg" xmlns:xlink="http://www.w3.org/1999/xlink" version="1.1"><rect x="0" y="0" width="960" height="540" fill="#282A36"></rect><defs><linearGradient id="grad1_0" x1="43.8%" y1="0%" x2="100%" y2="100%"><stop offset="14.444444444444446%" stop-color="#282a36" stop-opacity="1"></stop><stop offset="85.55555555555554%" stop-color="#282a36" stop-opacity="1"></stop></linearGradient></defs><defs><linearGradient id="grad2_0" x1="0%" y1="0%" x2="56.3%" y2="100%"><stop offset="14.444444444444446%" stop-color="#282a36" stop-opacity="1"></stop><stop offset="85.55555555555554%" stop-color="#282a36" stop-opacity="1"></stop></linearGradient></defs><g transform="translate(960, 0)"><path d="M0 378C-27 313 -54.1 248 -96.1 231.9C-138 215.8 -195 248.6 -242.5 242.5C-290.1 236.5 -328.2 191.6 -349.2 144.7C-370.2 97.8 -374.1 48.9 -378 0L0 0Z" fill="#BC96DA"></path></g><g transform="translate(0, 540)"><path d="M0 -378C44.6 -367.4 89.1 -356.8 142 -342.8C194.8 -328.7 255.9 -311.3 267.3 -267.3C278.6 -223.3 240.2 -152.7 250.4 -103.7C260.5 -54.7 319.3 -27.4 378 0L0 0Z" fill="#BC96DA"></path></g></svg>