<svg width="127" height="144" viewBox="0 0 127 144" fill="none" xmlns="http://www.w3.org/2000/svg">
<path d="M127 72.1094C127 75.423 124.314 78.1094 121 78.1094C117.686 78.1094 115 75.423 115 72.1094V36.918C115 39.9555 112.538 42.418 109.5 42.418C106.462 42.418 104 39.9555 104 36.918V96.8184C104 100.132 101.314 102.818 98 102.818C94.6863 102.818 92.0001 100.132 92 96.8184V55.6367C91.9998 58.9503 89.3136 61.6367 86 61.6367C82.6864 61.6367 80.0002 58.9503 80 55.6367V108.3C80 111.337 77.5376 113.8 74.5 113.8C71.4624 113.8 69 111.337 69 108.3V78.0996C69 81.1372 66.5376 83.5996 63.5 83.5996C60.4624 83.5996 58 81.1372 58 78.0996V56.1367C57.9998 59.1741 55.5375 61.6367 52.5 61.6367C49.4626 61.6367 47.0002 59.1741 47 56.1367V138C47 141.314 44.3137 144 41 144C37.6863 144 35 141.314 35 138V96.8184C34.9999 100.132 32.3137 102.818 29 102.818C25.6863 102.818 23.0001 100.132 23 96.8184V42.4092C23 45.4467 20.5375 47.9092 17.5 47.9092C14.4625 47.9092 12 45.4467 12 42.4092V96.8184C11.9999 100.132 9.31365 102.818 6 102.818C2.68635 102.818 9.00961e-05 100.132 0 96.8184V0H127V72.1094Z" fill="#8BE9FD"/>
</svg>

